<svg xmlns="http://www.w3.org/2000/svg" xmlns:xlink="http://www.w3.org/1999/xlink" xmlns:lucid="lucid" width="1400" height="1280"><g transform="translate(-120 -40)" lucid:page-tab-id="m-5o7ONTd-nK"><path d="M340 100V68c0-4.42 3.58-8 8-8h312v40zM660 60h320v40H660zM980 60h312c4.42 0 8 3.58 8 8v32H980z" stroke="#333" fill="#fff"/><path d="M660 1300H348c-4.42 0-8-3.58-8-8V100h320zM660 100h320v1200H660zM1300 100v1192c0 4.42-3.58 8-8 8H980V100z" stroke="#333" fill="none"/><use xlink:href="#a" transform="matrix(1,0,0,1,340,60) translate(109.025 23.6)"/><use xlink:href="#b" transform="matrix(1,0,0,1,660,60) translate(108.55 23.6)"/><use xlink:href="#c" transform="matrix(1,0,0,1,980,60) translate(87.225 23.6)"/><use xlink:href="#d" transform="matrix(1,0,0,1,980,60) translate(115.875 23.6)"/><use xlink:href="#e" transform="matrix(1,0,0,1,980,60) translate(163.825 23.6)"/><path d="M682.15 348c0-4.42 3.58-8 8-8h259.7c4.42 0 8 3.58 8 8v84c0 4.42-3.58 8-8 8h-259.7c-4.42 0-8-3.58-8-8z" stroke="#000" stroke-opacity="0" stroke-width="2" fill="#4397ff"/><use xlink:href="#f" transform="matrix(1,0,0,1,687.7091187986856,345.561) translate(12.977 20.186105530457382)"/><use xlink:href="#g" transform="matrix(1,0,0,1,687.7091187986856,345.561) translate(12.977 44.903263826143444)"/><use xlink:href="#h" transform="matrix(1,0,0,1,687.7091187986856,345.561) translate(25.507226080451964 44.903263826143444)"/><use xlink:href="#i" transform="matrix(1,0,0,1,687.7091187986856,345.561) translate(12.977 69.62042212182952)"/><use xlink:href="#j" transform="matrix(1,0,0,1,687.7091187986856,345.561) translate(25.507226080451964 69.62042212182952)"/><path d="M360 998c0-4.42 3.58-8 8-8h259.7c4.42 0 8 3.58 8 8v84c0 4.42-3.58 8-8 8H368c-4.42 0-8-3.58-8-8z" stroke="#000" stroke-opacity="0" stroke-width="2" fill="#4397ff"/><use xlink:href="#k" transform="matrix(1,0,0,1,365.56099999999986,995.5609999999991) translate(12.977 20.186105530457382)"/><use xlink:href="#g" transform="matrix(1,0,0,1,365.56099999999986,995.5609999999991) translate(12.977 44.903263826143444)"/><use xlink:href="#l" transform="matrix(1,0,0,1,365.56099999999986,995.5609999999991) translate(25.507226080451964 44.903263826143444)"/><path d="M537.85 1220c0 22.1-17.9 40-40 40s-40-17.9-40-40 17.9-40 40-40 40 17.9 40 40zm-68.3-28.3l56.6 56.6m-56.6 0l56.6-56.6M140 167.92c0-4.42 3.55-8.44 7.94-9L292.06 141c4.4-.56 7.94 2.58 7.94 7v104c0 4.42-3.58 8-8 8H148c-4.42 0-8-3.58-8-8z" stroke="#333" fill="#fff"/><use xlink:href="#m" transform="matrix(1,0,0,1,145,165) translate(40.79074074074074 24.615277777777777)"/><use xlink:href="#n" transform="matrix(1,0,0,1,145,165) translate(36.88672839506173 48.88194444444444)"/><use xlink:href="#o" transform="matrix(1,0,0,1,145,165) translate(37.44845679012346 73.14861111111111)"/><path d="M301 200h5m5 0h10m5 0h9.98m5 0h10m5 0h10m5 0h9.98m5 0h10m5 0h10m5 0h9.98m5 0h10m5 0h10m5 0h9.98m5 0h10m5 0h10m5 0h9.98m5 0h10m5 0H545.86m4.98 0h9.95m4.98 0h9.96m4.98 0h9.95m4.98 0h9.95m4.98 0h9.96m4.98 0h9.95m4.98 0h9.96m4.98 0h9.96m4.98 0h9.95m4.98 0h9.96m5 0h9.94m4.98 0h9.96m4.97 0H740m5 0h9.94m4.98 0h4.98" stroke="#333" fill="none"/><path d="M301 200.5h-.5v-1h.5" fill="#333"/><path d="M779.66 200l-14.26 4.64v-9.28z" stroke="#333" fill="#333"/><path d="M360 518.63c0-4.4 3.58-8 8-8h259.7c4.42 0 8 3.6 8 8v147.14c0 4.4-3.58 8-8 8H368c-4.42 0-8-3.6-8-8z" stroke="#000" stroke-opacity="0" stroke-width="2" fill="#4397ff"/><use xlink:href="#p" transform="matrix(1,0,0,1,365.5609999999999,516.1945251129416) translate(12.977 20.186105530457382)"/><use xlink:href="#g" transform="matrix(1,0,0,1,365.5609999999999,516.1945251129416) translate(12.977 44.903263826143444)"/><use xlink:href="#q" transform="matrix(1,0,0,1,365.5609999999999,516.1945251129416) translate(25.507226080451964 44.903263826143444)"/><use xlink:href="#i" transform="matrix(1,0,0,1,365.5609999999999,516.1945251129416) translate(12.977 69.62042212182952)"/><use xlink:href="#r" transform="matrix(1,0,0,1,365.5609999999999,516.1945251129416) translate(25.507226080451964 69.62042212182952)"/><use xlink:href="#i" transform="matrix(1,0,0,1,365.5609999999999,516.1945251129416) translate(12.977 94.3375804175156)"/><use xlink:href="#s" transform="matrix(1,0,0,1,365.5609999999999,516.1945251129416) translate(25.507226080451964 94.3375804175156)"/><use xlink:href="#i" transform="matrix(1,0,0,1,365.5609999999999,516.1945251129416) translate(12.977 119.05473871320166)"/><use xlink:href="#t" transform="matrix(1,0,0,1,365.5609999999999,516.1945251129416) translate(25.507226080451964 119.05473871320166)"/><use xlink:href="#i" transform="matrix(1,0,0,1,365.5609999999999,516.1945251129416) translate(12.977 143.77189700888772)"/><use xlink:href="#u" transform="matrix(1,0,0,1,365.5609999999999,516.1945251129416) translate(25.507226080451964 143.77189700888772)"/><path d="M1013.9 348c0-4.42 3.6-8 8-8h214c4.43 0 8 3.58 8 8v84c0 4.42-3.57 8-8 8h-214c-4.4 0-8-3.58-8-8z" stroke="#333" stroke-width="2" fill="#999"/><use xlink:href="#v" transform="matrix(1,0,0,1,1025.907593557151,352) translate(0 16.177777777777777)"/><use xlink:href="#w" transform="matrix(1,0,0,1,1025.907593557151,352) translate(0 40.44444444444444)"/><path d="M1010.96 550.2c0-4.42 3.58-8 8-8h226.15c4.42 0 8 3.58 8 8v84c0 4.42-3.58 8-8 8h-226.14c-4.42 0-8-3.58-8-8z" stroke="#333" stroke-width="2" fill="#999"/><use xlink:href="#x" transform="matrix(1,0,0,1,1022.9576579999962,554.1999999999998) translate(0 16.177777777777777)"/><use xlink:href="#w" transform="matrix(1,0,0,1,1022.9576579999962,554.1999999999998) translate(0 40.44444444444444)"/><path d="M958.35 390h38.17" stroke="#333" fill="none"/><path d="M958.36 390.5h-.5v-1h.5" fill="#333"/><path d="M1011.3 390L997 394.64v-9.28z" stroke="#333" fill="#333"/><path d="M1128.9 441.5v83.32" stroke="#333" fill="none"/><path d="M1129.4 441.5h-1v-.5h1" fill="#333"/><path d="M1128.9 539.58l-4.63-14.26h9.27z" stroke="#333" fill="#333"/><path d="M1009.46 592.2H652.1" stroke="#333" fill="none"/><path d="M1009.96 592.7h-.52v-1h.52" fill="#333"/><path d="M637.32 592.2l14.27-4.64v9.28z" stroke="#333" fill="#333"/><path d="M1010.96 748c0-4.42 3.58-8 8-8h226.15c4.42 0 8 3.58 8 8v84c0 4.42-3.58 8-8 8h-226.14c-4.42 0-8-3.58-8-8z" stroke="#333" stroke-width="2" fill="#999"/><use xlink:href="#y" transform="matrix(1,0,0,1,1022.9576579999916,752) translate(0 16.177777777777777)"/><use xlink:href="#z" transform="matrix(1,0,0,1,1022.9576579999916,752) translate(0 40.44444444444444)"/><path d="M1122.93 955.3c3.3-2.92 8.65-2.92 11.96 0l78.03 69.4c3.3 2.92 3.3 7.68 0 10.6l-78.04 69.4c-3.32 2.92-8.67 2.92-11.97 0l-78.04-69.4c-3.32-2.92-3.32-7.68 0-10.6z" stroke="#333" fill="#fff"/><use xlink:href="#A" transform="matrix(1,0,0,1,1043.907593557151,954.9999999999995) translate(41.05499999999999 80.025)"/><use xlink:href="#B" transform="matrix(1,0,0,1,1043.907593557151,954.9999999999995) translate(104.95500000000001 80.025)"/><path d="M1340 608c0-4.42 3.58-8 8-8h144c4.42 0 8 3.58 8 8v104c0 4.42-3.58 8-8 8h-144c-4.42 0-8-3.58-8-8z" fill="#fff" fill-opacity="0"/><path d="M1356 600h-8c-4.42 0-8 3.58-8 8v104c0 4.42 3.58 8 8 8h8" stroke="#333" fill="none"/><use xlink:href="#C" transform="matrix(1,0,0,1,1355,605) translate(4.599999999999994 15.399999999999993)"/><use xlink:href="#D" transform="matrix(1,0,0,1,1355,605) translate(43.5 15.399999999999993)"/><use xlink:href="#E" transform="matrix(1,0,0,1,1355,605) translate(95.4 15.399999999999993)"/><use xlink:href="#F" transform="matrix(1,0,0,1,1355,605) translate(42.5 36.99999999999999)"/><use xlink:href="#G" transform="matrix(1,0,0,1,1355,605) translate(62.5 36.99999999999999)"/><use xlink:href="#H" transform="matrix(1,0,0,1,1355,605) translate(87.5 36.99999999999999)"/><use xlink:href="#I" transform="matrix(1,0,0,1,1355,605) translate(26.074999999999996 58.599999999999994)"/><use xlink:href="#J" transform="matrix(1,0,0,1,1355,605) translate(12.599999999999994 80.20000000000002)"/><use xlink:href="#K" transform="matrix(1,0,0,1,1355,605) translate(77.5 80.20000000000002)"/><use xlink:href="#L" transform="matrix(1,0,0,1,1355,605) translate(19.549999999999997 101.80000000000001)"/><use xlink:href="#M" transform="matrix(1,0,0,1,1355,605) translate(57.5 101.80000000000001)"/><path d="M1339.03 660.18l-4.6 1.75m-4.58 1.74l-9.18 3.5m-4.6 1.75l-9.16 3.5m-4.58 1.74l-9.18 3.5m-4.6 1.74l-9.17 3.5m-4.6 1.74l-9.17 3.5m-4.6 1.75l-9.17 3.48m-4.6 1.75l-9.17 3.5m-4.6 1.74l-9.17 3.5m-4.6 1.75l-9.18 3.5m-4.6 1.74l-9.17 3.5m-4.6 1.74l-9.16 3.5m-4.6 1.75l-9.18 3.5m-4.6 1.74l-9.17 3.48m-4.6 1.75l-9.17 3.5m-4.6 1.74l-4.58 1.75" stroke="#333" fill="none"/><path d="M1339.5 660.54l-.3.1-.36-.92.66-.26M1132.58 739h-1.95l1.7-.65" fill="#333"/><path d="M840 190c0 16.57-13.43 30-30 30s-30-13.43-30-30 13.43-30 30-30 30 13.43 30 30z" stroke="#333" fill="#fff"/><path d="M810 221v102.62" stroke="#333" fill="none"/><path d="M810 220.5l.5-.02v.53h-1v-.54" fill="#333"/><path d="M810 338.38l-4.64-14.26h9.28z" stroke="#333" fill="#333"/><path d="M824.15 1030.5H652.1v-1h172.05m217.3 1H853.5v-1h187.95" fill="#333"/><path d="M1041.92 1030.42l-.48.08v-1h.55M651.6 1034.64L637.3 1030l14.27-4.64z" fill="#333"/><path d="M652.1 1035.32l-16.4-5.32 16.4-5.32m-13.16 5.32l12.15 3.95v-7.9" fill="#333"/><g><use xlink:href="#N" transform="matrix(1,0,0,1,824.1514155420421,1019.1999999999996) translate(0.005000000000000782 14.4)"/></g><path d="M497.85 1090.5v72.61" stroke="#333" fill="none"/><path d="M498.35 1090.5h-1v-.5h1" fill="#333"/><path d="M497.85 1177.88l-4.63-14.27h9.27z" stroke="#333" fill="#333"/><path d="M1132.03 841.5v55.45c0 .05-.04.1-.1.1-.03 0-.07.03-.07.08v39.56" stroke="#333" fill="none"/><path d="M1132.53 841.5h-1v-.5h1" fill="#333"/><path d="M1131.86 951.46l-4.64-14.27h9.27z" stroke="#333" fill="#333"/><path d="M1132.03 841.5V869c0 6.63 5.37 12 12 12h138.08c6.63 0 12-5.37 12-12v-67c0-6.63-5.37-12-12-12h-11.6" stroke="#333" fill="none"/><path d="M1132.53 841.5h-1v-.5h1" fill="#333"/><path d="M1255.72 790l14.27-4.64v9.28z" stroke="#333" fill="#333"/><path d="M140 767.92c0-4.42 3.55-8.44 7.94-9L292.06 741c4.4-.56 7.94 2.58 7.94 7v104c0 4.42-3.58 8-8 8H148c-4.42 0-8-3.58-8-8z" stroke="#333" fill="#fff"/><g><use xlink:href="#O" transform="matrix(1,0,0,1,145,765) translate(12.339197530864197 49.92777777777778)"/><use xlink:href="#P" transform="matrix(1,0,0,1,145,765) translate(64.69228395061728 49.92777777777778)"/></g><path d="M301 800.24h5.02m5.02 0h10.03m5.02 0h10.03m5.02 0h10.04m5 0h10.04m5.02 0h10.04m5.02 0h10.03m5.02 0h10.04m5.03 0h10.04m5 0h10.05m5.02 0h10.04m5.02 0h10.03m5.02 0h10.04m5 0h10.05m5 0h10.05m5.02 0h10.04m5.02 0h10.03m5.03 0h10.04m5.02 0h10.03m5 0h10.05m5.02 0h10.04m5.02 0h10.03m5 0h10.05m5.02 0h10.04m5.02 0h10.04m5.02 0h10.04m5.02 0h10.03m5.02 0h10.03m5.02 0h10.04m5 0h10.04m5.02 0h10.04m5.02 0h10.03m5.02 0h10.04m5.03 0h10.04m5 0h10.05m5.02 0h10.04m5.02 0h10.03m5.02 0h10.04m5 0h10.04m5.02 0h10.04m5.02 0h10.04m5.02 0h10.03m5.03 0h10.04m5.02 0h10.02m5.02 0h10.04m5.02 0h10.04m5.02 0h5" stroke="#333" fill="none"/><path d="M301 800.74h-.5v-1h.5" fill="#333"/><path d="M1008.34 800.24l-14.27 4.63v-9.27z" stroke="#333" fill="#333"/><defs><path fill="#333" d="M135-143c-3-34-86-38-87 0 15 53 115 12 119 90S17 21 10-45l28-5c4 36 97 45 98 0-10-56-113-15-118-90-4-57 82-63 122-42 12 7 21 19 24 35" id="Q"/><path fill="#333" d="M100-194c63 0 86 42 84 106H49c0 40 14 67 53 68 26 1 43-12 49-29l28 8c-11 28-37 45-77 45C44 4 14-33 15-96c1-61 26-98 85-98zm52 81c6-60-76-77-97-28-3 7-6 17-6 28h103" id="R"/><path fill="#333" d="M117-194c89-4 53 116 60 194h-32v-121c0-31-8-49-39-48C34-167 62-67 57 0H25l-1-190h30c1 10-1 24 2 32 11-22 29-35 61-36" id="S"/><path fill="#333" d="M85-194c31 0 48 13 60 33l-1-100h32l1 261h-30c-2-10 0-23-3-31C134-8 116 4 85 4 32 4 16-35 15-94c0-66 23-100 70-100zm9 24c-40 0-46 34-46 75 0 40 6 74 45 74 42 0 51-32 51-76 0-42-9-74-50-73" id="T"/><path fill="#333" d="M114-163C36-179 61-72 57 0H25l-1-190h30c1 12-1 29 2 39 6-27 23-49 58-41v29" id="U"/><path fill="#333" d="M205 0l-28-72H64L36 0H1l101-248h38L239 0h-34zm-38-99l-47-123c-12 45-31 82-46 123h93" id="V"/><path fill="#333" d="M177-190C167-65 218 103 67 71c-23-6-38-20-44-43l32-5c15 47 100 32 89-28v-30C133-14 115 1 83 1 29 1 15-40 15-95c0-56 16-97 71-98 29-1 48 16 59 35 1-10 0-23 2-32h30zM94-22c36 0 50-32 50-73 0-42-14-75-50-75-39 0-46 34-46 75s6 73 46 73" id="W"/><path fill="#333" d="M59-47c-2 24 18 29 38 22v24C64 9 27 4 27-40v-127H5v-23h24l9-43h21v43h35v23H59v120" id="X"/><g id="a"><use transform="matrix(0.05,0,0,0.05,0,0)" xlink:href="#Q"/><use transform="matrix(0.05,0,0,0.05,9,0)" xlink:href="#R"/><use transform="matrix(0.05,0,0,0.05,19,0)" xlink:href="#S"/><use transform="matrix(0.05,0,0,0.05,29,0)" xlink:href="#T"/><use transform="matrix(0.05,0,0,0.05,39,0)" xlink:href="#R"/><use transform="matrix(0.05,0,0,0.05,49,0)" xlink:href="#U"/><use transform="matrix(0.05,0,0,0.05,54.95,0)" xlink:href="#V"/><use transform="matrix(0.05,0,0,0.05,66.95,0)" xlink:href="#W"/><use transform="matrix(0.05,0,0,0.05,76.95,0)" xlink:href="#R"/><use transform="matrix(0.05,0,0,0.05,86.95,0)" xlink:href="#S"/><use transform="matrix(0.05,0,0,0.05,96.95,0)" xlink:href="#X"/></g><path fill="#333" d="M127-220V0H93v-220H8v-28h204v28h-85" id="Y"/><path fill="#333" d="M100-194c62-1 85 37 85 99 1 63-27 99-86 99S16-35 15-95c0-66 28-99 85-99zM99-20c44 1 53-31 53-75 0-43-8-75-51-75s-53 32-53 75 10 74 51 75" id="Z"/><path fill="#333" d="M143 0L79-87 56-68V0H24v-261h32v163l83-92h37l-77 82L181 0h-38" id="aa"/><g id="b"><use transform="matrix(0.05,0,0,0.05,0,0)" xlink:href="#Q"/><use transform="matrix(0.05,0,0,0.05,9,0)" xlink:href="#R"/><use transform="matrix(0.05,0,0,0.05,19,0)" xlink:href="#S"/><use transform="matrix(0.05,0,0,0.05,29,0)" xlink:href="#T"/><use transform="matrix(0.05,0,0,0.05,39,0)" xlink:href="#R"/><use transform="matrix(0.05,0,0,0.05,49,0)" xlink:href="#U"/><use transform="matrix(0.05,0,0,0.05,54.95,0)" xlink:href="#Y"/><use transform="matrix(0.05,0,0,0.05,63.900000000000006,0)" xlink:href="#Z"/><use transform="matrix(0.05,0,0,0.05,73.9,0)" xlink:href="#aa"/><use transform="matrix(0.05,0,0,0.05,82.9,0)" xlink:href="#R"/><use transform="matrix(0.05,0,0,0.05,92.9,0)" xlink:href="#S"/></g><path fill="#333" d="M140-251c81 0 123 46 123 126C263-46 219 4 140 4 59 4 17-45 17-125s42-126 123-126zm0 227c63 0 89-41 89-101s-29-99-89-99c-61 0-89 39-89 99S79-25 140-24" id="ab"/><path fill="#333" d="M101-234c-31-9-42 10-38 44h38v23H63V0H32v-167H5v-23h27c-7-52 17-82 69-68v24" id="ac"/><g id="c"><use transform="matrix(0.05,0,0,0.05,0,0)" xlink:href="#ab"/><use transform="matrix(0.05,0,0,0.05,14,0)" xlink:href="#ac"/><use transform="matrix(0.05,0,0,0.05,18.65,0)" xlink:href="#ac"/></g><path fill="#333" d="M96-169c-40 0-48 33-48 73s9 75 48 75c24 0 41-14 43-38l32 2c-6 37-31 61-74 61-59 0-76-41-82-99-10-93 101-131 147-64 4 7 5 14 7 22l-32 3c-4-21-16-35-41-35" id="ad"/><path fill="#333" d="M106-169C34-169 62-67 57 0H25v-261h32l-1 103c12-21 28-36 61-36 89 0 53 116 60 194h-32v-121c2-32-8-49-39-48" id="ae"/><path fill="#333" d="M141-36C126-15 110 5 73 4 37 3 15-17 15-53c-1-64 63-63 125-63 3-35-9-54-41-54-24 1-41 7-42 31l-33-3c5-37 33-52 76-52 45 0 72 20 72 64v82c-1 20 7 32 28 27v20c-31 9-61-2-59-35zM48-53c0 20 12 33 32 33 41-3 63-29 60-74-43 2-92-5-92 41" id="af"/><path fill="#333" d="M24-231v-30h32v30H24zM24 0v-190h32V0H24" id="ag"/><g id="d"><use transform="matrix(0.05,0,0,0.05,0,0)" xlink:href="#ad"/><use transform="matrix(0.05,0,0,0.05,9,0)" xlink:href="#ae"/><use transform="matrix(0.05,0,0,0.05,19,0)" xlink:href="#af"/><use transform="matrix(0.05,0,0,0.05,29,0)" xlink:href="#ag"/><use transform="matrix(0.05,0,0,0.05,32.95,0)" xlink:href="#S"/></g><path fill="#333" d="M210-169c-67 3-38 105-44 169h-31v-121c0-29-5-50-35-48C34-165 62-65 56 0H25l-1-190h30c1 10-1 24 2 32 10-44 99-50 107 0 11-21 27-35 58-36 85-2 47 119 55 194h-31v-121c0-29-5-49-35-48" id="ah"/><g id="e"><use transform="matrix(0.05,0,0,0.05,0,0)" xlink:href="#ah"/><use transform="matrix(0.05,0,0,0.05,14.950000000000001,0)" xlink:href="#R"/><use transform="matrix(0.05,0,0,0.05,24.950000000000003,0)" xlink:href="#X"/><use transform="matrix(0.05,0,0,0.05,29.950000000000003,0)" xlink:href="#ae"/><use transform="matrix(0.05,0,0,0.05,39.95,0)" xlink:href="#Z"/><use transform="matrix(0.05,0,0,0.05,49.95,0)" xlink:href="#T"/><use transform="matrix(0.05,0,0,0.05,59.95,0)" xlink:href="#Q"/></g><path fill="#fff" d="M133-34C117-15 103 5 69 4 32 3 11-16 11-54c-1-60 55-63 116-61 1-26-3-47-28-47-18 1-26 9-28 27l-52-2c7-38 36-58 82-57s74 22 75 68l1 82c-1 14 12 18 25 15v27c-30 8-71 5-69-32zm-48 3c29 0 43-24 42-57-32 0-66-3-65 30 0 17 8 27 23 27" id="ai"/><path fill="#fff" d="M135-194c53 0 70 44 70 98 0 56-19 98-73 100-31 1-45-17-59-34 3 33 2 69 2 105H25l-1-265h48c2 10 0 23 3 31 11-24 29-35 60-35zM114-30c33 0 39-31 40-66 0-38-9-64-40-64-56 0-55 130 0 130" id="aj"/><path fill="#fff" d="M135-150c-39-12-60 13-60 57V0H25l-1-190h47c2 13-1 29 3 40 6-28 27-53 61-41v41" id="ak"/><path fill="#fff" d="M110-194c64 0 96 36 96 99 0 64-35 99-97 99-61 0-95-36-95-99 0-62 34-99 96-99zm-1 164c35 0 45-28 45-65 0-40-10-65-43-65-34 0-45 26-45 65 0 36 10 65 43 65" id="al"/><path fill="#fff" d="M128 0H69L1-190h53L99-40l48-150h52" id="am"/><path fill="#fff" d="M185-48c-13 30-37 53-82 52C43 2 14-33 14-96s30-98 90-98c62 0 83 45 84 108H66c0 31 8 55 39 56 18 0 30-7 34-22zm-45-69c5-46-57-63-70-21-2 6-4 13-4 21h74" id="an"/><g id="f"><use transform="matrix(0.057215644202977006,0,0,0.057215644202977006,0,0)" xlink:href="#ai"/><use transform="matrix(0.057215644202977006,0,0,0.057215644202977006,11.443128840595401,0)" xlink:href="#aj"/><use transform="matrix(0.057215644202977006,0,0,0.057215644202977006,23.973354921047367,0)" xlink:href="#aj"/><use transform="matrix(0.057215644202977006,0,0,0.057215644202977006,36.50358100149933,0)" xlink:href="#ak"/><use transform="matrix(0.057215644202977006,0,0,0.057215644202977006,44.513771189916106,0)" xlink:href="#al"/><use transform="matrix(0.057215644202977006,0,0,0.057215644202977006,57.04399727036807,0)" xlink:href="#am"/><use transform="matrix(0.057215644202977006,0,0,0.057215644202977006,68.48712611096347,0)" xlink:href="#an"/></g><path fill="#fff" d="M14-72v-43h91v43H14" id="ao"/><use transform="matrix(0.057215644202977006,0,0,0.057215644202977006,0,0)" xlink:href="#ao" id="g"/><path fill="#fff" d="M137-138c1-29-70-34-71-4 15 46 118 7 119 86 1 83-164 76-172 9l43-7c4 19 20 25 44 25 33 8 57-30 24-41C81-84 22-81 20-136c-2-80 154-74 161-7" id="ap"/><path fill="#fff" d="M135-194c87-1 58 113 63 194h-50c-7-57 23-157-34-157-59 0-34 97-39 157H25l-1-190h47c2 12-1 28 3 38 12-26 28-41 61-42" id="aq"/><path fill="#fff" d="M88-194c31-1 46 15 58 34l-1-101h50l1 261h-48c-2-10 0-23-3-31C134-8 116 4 84 4 32 4 16-41 15-95c0-56 19-97 73-99zm17 164c33 0 40-30 41-66 1-37-9-64-41-64s-38 30-39 65c0 43 13 65 39 65" id="ar"/><path fill="#fff" d="M199 0l-22-63H83L61 0H9l90-248h61L250 0h-51zm-33-102l-36-108c-10 38-24 72-36 108h72" id="as"/><path fill="#fff" d="M195-6C206 82 75 100 31 46c-4-6-6-13-8-21l49-6c3 16 16 24 34 25 40 0 42-37 40-79-11 22-30 35-61 35-53 0-70-43-70-97 0-56 18-96 73-97 30 0 46 14 59 34l2-30h47zm-90-29c32 0 41-27 41-63 0-35-9-62-40-62-32 0-39 29-40 63 0 36 9 62 39 62" id="at"/><path fill="#fff" d="M115-3C79 11 28 4 28-45v-112H4v-33h27l15-45h31v45h36v33H77v99c-1 23 16 31 38 25v30" id="au"/><path fill="#fff" d="M24 0v-54h51V0H24" id="av"/><g id="h"><use transform="matrix(0.057215644202977006,0,0,0.057215644202977006,0,0)" xlink:href="#ap"/><use transform="matrix(0.057215644202977006,0,0,0.057215644202977006,11.443128840595401,0)" xlink:href="#an"/><use transform="matrix(0.057215644202977006,0,0,0.057215644202977006,22.886257681190802,0)" xlink:href="#aq"/><use transform="matrix(0.057215644202977006,0,0,0.057215644202977006,35.416483761642766,0)" xlink:href="#ar"/><use transform="matrix(0.057215644202977006,0,0,0.057215644202977006,47.946709842094734,0)" xlink:href="#an"/><use transform="matrix(0.057215644202977006,0,0,0.057215644202977006,59.38983868269013,0)" xlink:href="#ak"/><use transform="matrix(0.057215644202977006,0,0,0.057215644202977006,67.40002887110691,0)" xlink:href="#as"/><use transform="matrix(0.057215644202977006,0,0,0.057215644202977006,82.21888071967795,0)" xlink:href="#at"/><use transform="matrix(0.057215644202977006,0,0,0.057215644202977006,94.74910680012992,0)" xlink:href="#an"/><use transform="matrix(0.057215644202977006,0,0,0.057215644202977006,106.19223564072533,0)" xlink:href="#aq"/><use transform="matrix(0.057215644202977006,0,0,0.057215644202977006,118.72246172117728,0)" xlink:href="#au"/><use transform="matrix(0.057215644202977006,0,0,0.057215644202977006,125.53112338133155,0)" xlink:href="#av"/><use transform="matrix(0.057215644202977006,0,0,0.057215644202977006,131.25268780162926,0)" xlink:href="#ai"/><use transform="matrix(0.057215644202977006,0,0,0.057215644202977006,142.69581664222466,0)" xlink:href="#ar"/><use transform="matrix(0.057215644202977006,0,0,0.057215644202977006,155.22604272267662,0)" xlink:href="#ar"/><use transform="matrix(0.057215644202977006,0,0,0.057215644202977006,167.7562688031286,0)" xlink:href="#ak"/><use transform="matrix(0.057215644202977006,0,0,0.057215644202977006,175.76645899154536,0)" xlink:href="#an"/><use transform="matrix(0.057215644202977006,0,0,0.057215644202977006,187.20958783214076,0)" xlink:href="#ap"/><use transform="matrix(0.057215644202977006,0,0,0.057215644202977006,198.65271667273615,0)" xlink:href="#ap"/></g><use transform="matrix(0.057215644202977006,0,0,0.057215644202977006,0,0)" xlink:href="#ao" id="i"/><path fill="#fff" d="M220-157c-53 9-28 100-34 157h-49v-107c1-27-5-49-29-50C55-147 81-57 75 0H25l-1-190h47c2 12-1 28 3 38 10-53 101-56 108 0 13-22 24-43 59-42 82 1 51 116 57 194h-49v-107c-1-25-5-48-29-50" id="aw"/><path fill="#fff" d="M85 4C-2 5 27-109 22-190h50c7 57-23 150 33 157 60-5 35-97 40-157h50l1 190h-47c-2-12 1-28-3-38-12 25-28 42-61 42" id="ax"/><g id="j"><use transform="matrix(0.057215644202977006,0,0,0.057215644202977006,0,0)" xlink:href="#ai"/><use transform="matrix(0.057215644202977006,0,0,0.057215644202977006,11.443128840595401,0)" xlink:href="#aw"/><use transform="matrix(0.057215644202977006,0,0,0.057215644202977006,29.752134985548036,0)" xlink:href="#al"/><use transform="matrix(0.057215644202977006,0,0,0.057215644202977006,42.28236106600001,0)" xlink:href="#ax"/><use transform="matrix(0.057215644202977006,0,0,0.057215644202977006,54.812587146451975,0)" xlink:href="#aq"/><use transform="matrix(0.057215644202977006,0,0,0.057215644202977006,67.34281322690394,0)" xlink:href="#au"/></g><path fill="#fff" d="M190-63c-7 42-38 67-86 67-59 0-84-38-90-98-12-110 154-137 174-36l-49 2c-2-19-15-32-35-32-30 0-35 28-38 64-6 74 65 87 74 30" id="ay"/><path fill="#fff" d="M25 0v-261h50V0H25" id="az"/><path fill="#fff" d="M25-224v-37h50v37H25zM25 0v-190h50V0H25" id="aA"/><path fill="#fff" d="M136-208V0H84v-208H4v-40h212v40h-80" id="aB"/><g id="k"><use transform="matrix(0.057215644202977006,0,0,0.057215644202977006,0,0)" xlink:href="#ak"/><use transform="matrix(0.057215644202977006,0,0,0.057215644202977006,8.01019018841678,0)" xlink:href="#an"/><use transform="matrix(0.057215644202977006,0,0,0.057215644202977006,19.45331902901218,0)" xlink:href="#ay"/><use transform="matrix(0.057215644202977006,0,0,0.057215644202977006,30.896447869607584,0)" xlink:href="#az"/><use transform="matrix(0.057215644202977006,0,0,0.057215644202977006,36.61801228990529,0)" xlink:href="#ai"/><use transform="matrix(0.057215644202977006,0,0,0.057215644202977006,48.06114113050069,0)" xlink:href="#aA"/><use transform="matrix(0.057215644202977006,0,0,0.057215644202977006,53.78270555079839,0)" xlink:href="#aw"/><use transform="matrix(0.057215644202977006,0,0,0.057215644202977006,72.09171169575103,0)" xlink:href="#aB"/><use transform="matrix(0.057215644202977006,0,0,0.057215644202977006,83.47762489214345,0)" xlink:href="#ak"/><use transform="matrix(0.057215644202977006,0,0,0.057215644202977006,91.48781508056024,0)" xlink:href="#ai"/><use transform="matrix(0.057215644202977006,0,0,0.057215644202977006,102.93094392115565,0)" xlink:href="#aq"/><use transform="matrix(0.057215644202977006,0,0,0.057215644202977006,115.46117000160761,0)" xlink:href="#ap"/><use transform="matrix(0.057215644202977006,0,0,0.057215644202977006,126.90429884220302,0)" xlink:href="#ai"/><use transform="matrix(0.057215644202977006,0,0,0.057215644202977006,138.3474276827984,0)" xlink:href="#ay"/><use transform="matrix(0.057215644202977006,0,0,0.057215644202977006,149.7905565233938,0)" xlink:href="#au"/><use transform="matrix(0.057215644202977006,0,0,0.057215644202977006,156.59921818354806,0)" xlink:href="#aA"/><use transform="matrix(0.057215644202977006,0,0,0.057215644202977006,162.32078260384577,0)" xlink:href="#al"/><use transform="matrix(0.057215644202977006,0,0,0.057215644202977006,174.85100868429774,0)" xlink:href="#aq"/></g><path fill="#fff" d="M24 0v-248h52V0H24" id="aC"/><g id="l"><use transform="matrix(0.057215644202977006,0,0,0.057215644202977006,0,0)" xlink:href="#au"/><use transform="matrix(0.057215644202977006,0,0,0.057215644202977006,6.8086616601542636,0)" xlink:href="#ak"/><use transform="matrix(0.057215644202977006,0,0,0.057215644202977006,14.818851848571045,0)" xlink:href="#ai"/><use transform="matrix(0.057215644202977006,0,0,0.057215644202977006,26.261980689166442,0)" xlink:href="#aq"/><use transform="matrix(0.057215644202977006,0,0,0.057215644202977006,38.7922067696184,0)" xlink:href="#ap"/><use transform="matrix(0.057215644202977006,0,0,0.057215644202977006,50.2353356102138,0)" xlink:href="#ai"/><use transform="matrix(0.057215644202977006,0,0,0.057215644202977006,61.6784644508092,0)" xlink:href="#ay"/><use transform="matrix(0.057215644202977006,0,0,0.057215644202977006,73.12159329140461,0)" xlink:href="#au"/><use transform="matrix(0.057215644202977006,0,0,0.057215644202977006,79.93025495155887,0)" xlink:href="#aA"/><use transform="matrix(0.057215644202977006,0,0,0.057215644202977006,85.65181937185656,0)" xlink:href="#al"/><use transform="matrix(0.057215644202977006,0,0,0.057215644202977006,98.18204545230853,0)" xlink:href="#aq"/><use transform="matrix(0.057215644202977006,0,0,0.057215644202977006,110.7122715327605,0)" xlink:href="#aC"/><use transform="matrix(0.057215644202977006,0,0,0.057215644202977006,116.43383595305819,0)" xlink:href="#ar"/></g><path fill="#333" d="M169-182c-1-43-94-46-97-3 18 66 151 10 154 114 3 95-165 93-204 36-6-8-10-19-12-30l50-8c3 46 112 56 116 5-17-69-150-10-154-114-4-87 153-88 188-35 5 8 8 18 10 28" id="aD"/><path fill="#333" d="M185-48c-13 30-37 53-82 52C43 2 14-33 14-96s30-98 90-98c62 0 83 45 84 108H66c0 31 8 55 39 56 18 0 30-7 34-22zm-45-69c5-46-57-63-70-21-2 6-4 13-4 21h74" id="aE"/><path fill="#333" d="M135-194c87-1 58 113 63 194h-50c-7-57 23-157-34-157-59 0-34 97-39 157H25l-1-190h47c2 12-1 28 3 38 12-26 28-41 61-42" id="aF"/><path fill="#333" d="M88-194c31-1 46 15 58 34l-1-101h50l1 261h-48c-2-10 0-23-3-31C134-8 116 4 84 4 32 4 16-41 15-95c0-56 19-97 73-99zm17 164c33 0 40-30 41-66 1-37-9-64-41-64s-38 30-39 65c0 43 13 65 39 65" id="aG"/><path fill="#333" d="M135-150c-39-12-60 13-60 57V0H25l-1-190h47c2 13-1 29 3 40 6-28 27-53 61-41v41" id="aH"/><g id="m"><use transform="matrix(0.056172839506172835,0,0,0.056172839506172835,0,0)" xlink:href="#aD"/><use transform="matrix(0.056172839506172835,0,0,0.056172839506172835,13.481481481481481,0)" xlink:href="#aE"/><use transform="matrix(0.056172839506172835,0,0,0.056172839506172835,24.716049382716047,0)" xlink:href="#aF"/><use transform="matrix(0.056172839506172835,0,0,0.056172839506172835,37.0179012345679,0)" xlink:href="#aG"/><use transform="matrix(0.056172839506172835,0,0,0.056172839506172835,49.31975308641975,0)" xlink:href="#aE"/><use transform="matrix(0.056172839506172835,0,0,0.056172839506172835,60.554320987654314,0)" xlink:href="#aH"/></g><path fill="#333" d="M25-224v-37h50v37H25zM25 0v-190h50V0H25" id="aI"/><path fill="#333" d="M115-3C79 11 28 4 28-45v-112H4v-33h27l15-45h31v45h36v33H77v99c-1 23 16 31 38 25v30" id="aJ"/><path fill="#333" d="M133-34C117-15 103 5 69 4 32 3 11-16 11-54c-1-60 55-63 116-61 1-26-3-47-28-47-18 1-26 9-28 27l-52-2c7-38 36-58 82-57s74 22 75 68l1 82c-1 14 12 18 25 15v27c-30 8-71 5-69-32zm-48 3c29 0 43-24 42-57-32 0-66-3-65 30 0 17 8 27 23 27" id="aK"/><path fill="#333" d="M137-138c1-29-70-34-71-4 15 46 118 7 119 86 1 83-164 76-172 9l43-7c4 19 20 25 44 25 33 8 57-30 24-41C81-84 22-81 20-136c-2-80 154-74 161-7" id="aL"/><g id="n"><use transform="matrix(0.056172839506172835,0,0,0.056172839506172835,0,0)" xlink:href="#aI"/><use transform="matrix(0.056172839506172835,0,0,0.056172839506172835,5.617283950617283,0)" xlink:href="#aF"/><use transform="matrix(0.056172839506172835,0,0,0.056172839506172835,17.919135802469135,0)" xlink:href="#aI"/><use transform="matrix(0.056172839506172835,0,0,0.056172839506172835,23.53641975308642,0)" xlink:href="#aJ"/><use transform="matrix(0.056172839506172835,0,0,0.056172839506172835,30.220987654320986,0)" xlink:href="#aI"/><use transform="matrix(0.056172839506172835,0,0,0.056172839506172835,35.83827160493827,0)" xlink:href="#aK"/><use transform="matrix(0.056172839506172835,0,0,0.056172839506172835,47.07283950617284,0)" xlink:href="#aJ"/><use transform="matrix(0.056172839506172835,0,0,0.056172839506172835,53.757407407407406,0)" xlink:href="#aE"/><use transform="matrix(0.056172839506172835,0,0,0.056172839506172835,64.99197530864197,0)" xlink:href="#aL"/></g><path fill="#333" d="M121-226c-27-7-43 5-38 36h38v33H83V0H34v-157H6v-33h28c-9-59 32-81 87-68v32" id="aM"/><g id="o"><use transform="matrix(0.056172839506172835,0,0,0.056172839506172835,0,0)" xlink:href="#aJ"/><use transform="matrix(0.056172839506172835,0,0,0.056172839506172835,6.684567901234567,0)" xlink:href="#aH"/><use transform="matrix(0.056172839506172835,0,0,0.056172839506172835,14.548765432098763,0)" xlink:href="#aK"/><use transform="matrix(0.056172839506172835,0,0,0.056172839506172835,25.78333333333333,0)" xlink:href="#aF"/><use transform="matrix(0.056172839506172835,0,0,0.056172839506172835,38.08518518518518,0)" xlink:href="#aL"/><use transform="matrix(0.056172839506172835,0,0,0.056172839506172835,49.31975308641975,0)" xlink:href="#aM"/><use transform="matrix(0.056172839506172835,0,0,0.056172839506172835,56.00432098765432,0)" xlink:href="#aE"/><use transform="matrix(0.056172839506172835,0,0,0.056172839506172835,67.23888888888888,0)" xlink:href="#aH"/></g><path fill="#fff" d="M144 0l-44-69L55 0H2l70-98-66-92h53l41 62 40-62h54l-67 91 71 99h-54" id="aN"/><g id="p"><use transform="matrix(0.057215644202977006,0,0,0.057215644202977006,0,0)" xlink:href="#an"/><use transform="matrix(0.057215644202977006,0,0,0.057215644202977006,11.443128840595401,0)" xlink:href="#aN"/><use transform="matrix(0.057215644202977006,0,0,0.057215644202977006,22.886257681190802,0)" xlink:href="#aA"/><use transform="matrix(0.057215644202977006,0,0,0.057215644202977006,28.6078221014885,0)" xlink:href="#au"/><use transform="matrix(0.057215644202977006,0,0,0.057215644202977006,35.416483761642766,0)" xlink:href="#aB"/><use transform="matrix(0.057215644202977006,0,0,0.057215644202977006,46.80239695803519,0)" xlink:href="#ak"/><use transform="matrix(0.057215644202977006,0,0,0.057215644202977006,54.81258714645197,0)" xlink:href="#ai"/><use transform="matrix(0.057215644202977006,0,0,0.057215644202977006,66.25571598704737,0)" xlink:href="#aq"/><use transform="matrix(0.057215644202977006,0,0,0.057215644202977006,78.78594206749933,0)" xlink:href="#ap"/><use transform="matrix(0.057215644202977006,0,0,0.057215644202977006,90.22907090809474,0)" xlink:href="#ai"/><use transform="matrix(0.057215644202977006,0,0,0.057215644202977006,101.67219974869015,0)" xlink:href="#ay"/><use transform="matrix(0.057215644202977006,0,0,0.057215644202977006,113.11532858928555,0)" xlink:href="#au"/><use transform="matrix(0.057215644202977006,0,0,0.057215644202977006,119.92399024943981,0)" xlink:href="#aA"/><use transform="matrix(0.057215644202977006,0,0,0.057215644202977006,125.6455546697375,0)" xlink:href="#al"/><use transform="matrix(0.057215644202977006,0,0,0.057215644202977006,138.17578075018946,0)" xlink:href="#aq"/></g><path fill="#fff" d="M135-194c52 0 70 43 70 98 0 56-19 99-73 100-30 1-46-15-58-35L72 0H24l1-261h50v104c11-23 29-37 60-37zM114-30c31 0 40-27 40-66 0-37-7-63-39-63s-41 28-41 65c0 36 8 64 40 64" id="aO"/><g id="q"><use transform="matrix(0.057215644202977006,0,0,0.057215644202977006,0,0)" xlink:href="#aO"/><use transform="matrix(0.057215644202977006,0,0,0.057215644202977006,12.530226080451964,0)" xlink:href="#ax"/><use transform="matrix(0.057215644202977006,0,0,0.057215644202977006,25.060452160903928,0)" xlink:href="#ak"/><use transform="matrix(0.057215644202977006,0,0,0.057215644202977006,33.07064234932071,0)" xlink:href="#aq"/><use transform="matrix(0.057215644202977006,0,0,0.057215644202977006,45.600868429772675,0)" xlink:href="#as"/><use transform="matrix(0.057215644202977006,0,0,0.057215644202977006,60.41972027834372,0)" xlink:href="#ay"/><use transform="matrix(0.057215644202977006,0,0,0.057215644202977006,71.86284911893912,0)" xlink:href="#ay"/><use transform="matrix(0.057215644202977006,0,0,0.057215644202977006,83.30597795953453,0)" xlink:href="#al"/><use transform="matrix(0.057215644202977006,0,0,0.057215644202977006,95.8362040399865,0)" xlink:href="#ax"/><use transform="matrix(0.057215644202977006,0,0,0.057215644202977006,108.36643012043847,0)" xlink:href="#aq"/><use transform="matrix(0.057215644202977006,0,0,0.057215644202977006,120.89665620089043,0)" xlink:href="#au"/><use transform="matrix(0.057215644202977006,0,0,0.057215644202977006,127.70531786104468,0)" xlink:href="#av"/><use transform="matrix(0.057215644202977006,0,0,0.057215644202977006,133.4268822813424,0)" xlink:href="#ai"/><use transform="matrix(0.057215644202977006,0,0,0.057215644202977006,144.87001112193778,0)" xlink:href="#ar"/><use transform="matrix(0.057215644202977006,0,0,0.057215644202977006,157.40023720238975,0)" xlink:href="#ar"/><use transform="matrix(0.057215644202977006,0,0,0.057215644202977006,169.9304632828417,0)" xlink:href="#ak"/><use transform="matrix(0.057215644202977006,0,0,0.057215644202977006,177.94065347125849,0)" xlink:href="#an"/><use transform="matrix(0.057215644202977006,0,0,0.057215644202977006,189.38378231185388,0)" xlink:href="#ap"/><use transform="matrix(0.057215644202977006,0,0,0.057215644202977006,200.82691115244927,0)" xlink:href="#ap"/></g><path fill="#fff" d="M114-157C55-157 80-60 75 0H25v-261h50l-1 109c12-26 28-41 61-42 86-1 58 113 63 194h-50c-7-57 23-157-34-157" id="aP"/><path fill="#fff" d="M24-248c93 1 206-16 204 79-1 75-69 88-152 82V0H24v-248zm52 121c47 0 100 7 100-41 0-47-54-39-100-39v80" id="aQ"/><g id="r"><use transform="matrix(0.057215644202977006,0,0,0.057215644202977006,0,0)" xlink:href="#aP"/><use transform="matrix(0.057215644202977006,0,0,0.057215644202977006,12.530226080451964,0)" xlink:href="#ai"/><use transform="matrix(0.057215644202977006,0,0,0.057215644202977006,23.973354921047367,0)" xlink:href="#ap"/><use transform="matrix(0.057215644202977006,0,0,0.057215644202977006,35.416483761642766,0)" xlink:href="#aP"/><use transform="matrix(0.057215644202977006,0,0,0.057215644202977006,47.946709842094734,0)" xlink:href="#aQ"/><use transform="matrix(0.057215644202977006,0,0,0.057215644202977006,61.678464450809216,0)" xlink:href="#ai"/><use transform="matrix(0.057215644202977006,0,0,0.057215644202977006,73.12159329140462,0)" xlink:href="#aA"/><use transform="matrix(0.057215644202977006,0,0,0.057215644202977006,78.84315771170232,0)" xlink:href="#ak"/><use transform="matrix(0.057215644202977006,0,0,0.057215644202977006,85.70903501605956,0)" xlink:href="#av"/><use transform="matrix(0.057215644202977006,0,0,0.057215644202977006,91.43059943635726,0)" xlink:href="#aP"/><use transform="matrix(0.057215644202977006,0,0,0.057215644202977006,103.96082551680922,0)" xlink:href="#ai"/><use transform="matrix(0.057215644202977006,0,0,0.057215644202977006,115.40395435740463,0)" xlink:href="#ap"/><use transform="matrix(0.057215644202977006,0,0,0.057215644202977006,126.84708319800002,0)" xlink:href="#aP"/></g><path fill="#fff" d="M24 0v-248h195v40H76v63h132v40H76v65h150V0H24" id="aR"/><path fill="#fff" d="M169-182c-1-43-94-46-97-3 18 66 151 10 154 114 3 95-165 93-204 36-6-8-10-19-12-30l50-8c3 46 112 56 116 5-17-69-150-10-154-114-4-87 153-88 188-35 5 8 8 18 10 28" id="aS"/><g id="s"><use transform="matrix(0.057215644202977006,0,0,0.057215644202977006,0,0)" xlink:href="#aj"/><use transform="matrix(0.057215644202977006,0,0,0.057215644202977006,12.530226080451964,0)" xlink:href="#an"/><use transform="matrix(0.057215644202977006,0,0,0.057215644202977006,23.973354921047367,0)" xlink:href="#ak"/><use transform="matrix(0.057215644202977006,0,0,0.057215644202977006,31.983545109464146,0)" xlink:href="#aA"/><use transform="matrix(0.057215644202977006,0,0,0.057215644202977006,37.70510952976185,0)" xlink:href="#al"/><use transform="matrix(0.057215644202977006,0,0,0.057215644202977006,50.23533561021381,0)" xlink:href="#ar"/><use transform="matrix(0.057215644202977006,0,0,0.057215644202977006,62.76556169066578,0)" xlink:href="#aR"/><use transform="matrix(0.057215644202977006,0,0,0.057215644202977006,76.49731629938026,0)" xlink:href="#aq"/><use transform="matrix(0.057215644202977006,0,0,0.057215644202977006,89.02754237983223,0)" xlink:href="#ar"/><use transform="matrix(0.057215644202977006,0,0,0.057215644202977006,101.5577684602842,0)" xlink:href="#aS"/><use transform="matrix(0.057215644202977006,0,0,0.057215644202977006,115.28952306899868,0)" xlink:href="#an"/><use transform="matrix(0.057215644202977006,0,0,0.057215644202977006,126.7326519095941,0)" xlink:href="#ay"/><use transform="matrix(0.057215644202977006,0,0,0.057215644202977006,138.1757807501895,0)" xlink:href="#al"/><use transform="matrix(0.057215644202977006,0,0,0.057215644202977006,150.70600683064146,0)" xlink:href="#aq"/><use transform="matrix(0.057215644202977006,0,0,0.057215644202977006,163.23623291109342,0)" xlink:href="#ar"/><use transform="matrix(0.057215644202977006,0,0,0.057215644202977006,175.7664589915454,0)" xlink:href="#ap"/></g><path fill="#fff" d="M147 0L96-86 75-71V0H25v-261h50v150l67-79h53l-66 74L201 0h-54" id="aT"/><g id="t"><use transform="matrix(0.057215644202977006,0,0,0.057215644202977006,0,0)" xlink:href="#ap"/><use transform="matrix(0.057215644202977006,0,0,0.057215644202977006,11.443128840595401,0)" xlink:href="#an"/><use transform="matrix(0.057215644202977006,0,0,0.057215644202977006,22.886257681190802,0)" xlink:href="#aq"/><use transform="matrix(0.057215644202977006,0,0,0.057215644202977006,35.416483761642766,0)" xlink:href="#ar"/><use transform="matrix(0.057215644202977006,0,0,0.057215644202977006,47.946709842094734,0)" xlink:href="#an"/><use transform="matrix(0.057215644202977006,0,0,0.057215644202977006,59.38983868269013,0)" xlink:href="#ak"/><use transform="matrix(0.057215644202977006,0,0,0.057215644202977006,67.40002887110691,0)" xlink:href="#aB"/><use transform="matrix(0.057215644202977006,0,0,0.057215644202977006,78.3854325580785,0)" xlink:href="#al"/><use transform="matrix(0.057215644202977006,0,0,0.057215644202977006,90.91565863853047,0)" xlink:href="#aT"/><use transform="matrix(0.057215644202977006,0,0,0.057215644202977006,102.35878747912588,0)" xlink:href="#an"/><use transform="matrix(0.057215644202977006,0,0,0.057215644202977006,113.80191631972129,0)" xlink:href="#aq"/><use transform="matrix(0.057215644202977006,0,0,0.057215644202977006,126.33214240017325,0)" xlink:href="#av"/><use transform="matrix(0.057215644202977006,0,0,0.057215644202977006,132.05370682047095,0)" xlink:href="#ai"/><use transform="matrix(0.057215644202977006,0,0,0.057215644202977006,143.49683566106634,0)" xlink:href="#ar"/><use transform="matrix(0.057215644202977006,0,0,0.057215644202977006,156.0270617415183,0)" xlink:href="#ar"/><use transform="matrix(0.057215644202977006,0,0,0.057215644202977006,168.55728782197028,0)" xlink:href="#ak"/><use transform="matrix(0.057215644202977006,0,0,0.057215644202977006,176.56747801038705,0)" xlink:href="#an"/><use transform="matrix(0.057215644202977006,0,0,0.057215644202977006,188.01060685098244,0)" xlink:href="#ap"/><use transform="matrix(0.057215644202977006,0,0,0.057215644202977006,199.45373569157783,0)" xlink:href="#ap"/></g><g id="u"><use transform="matrix(0.057215644202977006,0,0,0.057215644202977006,0,0)" xlink:href="#au"/><use transform="matrix(0.057215644202977006,0,0,0.057215644202977006,6.8086616601542636,0)" xlink:href="#al"/><use transform="matrix(0.057215644202977006,0,0,0.057215644202977006,19.33888774060623,0)" xlink:href="#aT"/><use transform="matrix(0.057215644202977006,0,0,0.057215644202977006,30.782016581201628,0)" xlink:href="#an"/><use transform="matrix(0.057215644202977006,0,0,0.057215644202977006,42.22514542179703,0)" xlink:href="#aq"/><use transform="matrix(0.057215644202977006,0,0,0.057215644202977006,54.75537150224899,0)" xlink:href="#as"/><use transform="matrix(0.057215644202977006,0,0,0.057215644202977006,69.57422335082003,0)" xlink:href="#aw"/><use transform="matrix(0.057215644202977006,0,0,0.057215644202977006,87.88322949577267,0)" xlink:href="#al"/><use transform="matrix(0.057215644202977006,0,0,0.057215644202977006,100.41345557622464,0)" xlink:href="#ax"/><use transform="matrix(0.057215644202977006,0,0,0.057215644202977006,112.9436816566766,0)" xlink:href="#aq"/><use transform="matrix(0.057215644202977006,0,0,0.057215644202977006,125.47390773712857,0)" xlink:href="#au"/></g><path fill="#fff" d="M175 0L67-191c6 58 2 128 3 191H24v-248h59L193-55c-6-58-2-129-3-193h46V0h-61" id="aU"/><path fill="#fff" d="M231 0h-52l-39-155L100 0H48L-1-190h46L77-45c9-52 24-97 36-145h53l37 145 32-145h46" id="aV"/><path fill="#fff" d="M186 0v-106H76V0H24v-248h52v99h110v-99h50V0h-50" id="aW"/><g id="v"><use transform="matrix(0.056172839506172835,0,0,0.056172839506172835,0,0)" xlink:href="#ay"/><use transform="matrix(0.056172839506172835,0,0,0.056172839506172835,11.234567901234566,0)" xlink:href="#ak"/><use transform="matrix(0.056172839506172835,0,0,0.056172839506172835,19.098765432098762,0)" xlink:href="#an"/><use transform="matrix(0.056172839506172835,0,0,0.056172839506172835,30.333333333333332,0)" xlink:href="#ai"/><use transform="matrix(0.056172839506172835,0,0,0.056172839506172835,41.5679012345679,0)" xlink:href="#au"/><use transform="matrix(0.056172839506172835,0,0,0.056172839506172835,48.252469135802464,0)" xlink:href="#an"/><use transform="matrix(0.056172839506172835,0,0,0.056172839506172835,59.487037037037034,0)" xlink:href="#aU"/><use transform="matrix(0.056172839506172835,0,0,0.056172839506172835,74.03580246913579,0)" xlink:href="#an"/><use transform="matrix(0.056172839506172835,0,0,0.056172839506172835,85.27037037037036,0)" xlink:href="#aV"/><use transform="matrix(0.056172839506172835,0,0,0.056172839506172835,100.99876543209875,0)" xlink:href="#aW"/><use transform="matrix(0.056172839506172835,0,0,0.056172839506172835,115.54753086419753,0)" xlink:href="#ai"/><use transform="matrix(0.056172839506172835,0,0,0.056172839506172835,126.78209876543208,0)" xlink:href="#ap"/><use transform="matrix(0.056172839506172835,0,0,0.056172839506172835,138.01666666666665,0)" xlink:href="#aP"/><use transform="matrix(0.056172839506172835,0,0,0.056172839506172835,150.3185185185185,0)" xlink:href="#aQ"/><use transform="matrix(0.056172839506172835,0,0,0.056172839506172835,163.79999999999995,0)" xlink:href="#ai"/><use transform="matrix(0.056172839506172835,0,0,0.056172839506172835,175.0345679012345,0)" xlink:href="#aA"/><use transform="matrix(0.056172839506172835,0,0,0.056172839506172835,180.6518518518518,0)" xlink:href="#ak"/></g><use transform="matrix(0.056172839506172835,0,0,0.056172839506172835,0,0)" xlink:href="#ao" id="w"/><path fill="#fff" d="M182-130c37 4 62 22 62 59C244 23 116-4 24 0v-248c84 5 203-23 205 63 0 31-19 50-47 55zM76-148c40-3 101 13 101-30 0-44-60-28-101-31v61zm0 110c48-3 116 14 116-37 0-48-69-32-116-35v72" id="aX"/><g id="x"><use transform="matrix(0.056172839506172835,0,0,0.056172839506172835,0,0)" xlink:href="#at"/><use transform="matrix(0.056172839506172835,0,0,0.056172839506172835,12.30185185185185,0)" xlink:href="#an"/><use transform="matrix(0.056172839506172835,0,0,0.056172839506172835,23.536419753086417,0)" xlink:href="#aq"/><use transform="matrix(0.056172839506172835,0,0,0.056172839506172835,35.83827160493827,0)" xlink:href="#an"/><use transform="matrix(0.056172839506172835,0,0,0.056172839506172835,47.07283950617284,0)" xlink:href="#ak"/><use transform="matrix(0.056172839506172835,0,0,0.056172839506172835,54.93703703703704,0)" xlink:href="#ai"/><use transform="matrix(0.056172839506172835,0,0,0.056172839506172835,66.1716049382716,0)" xlink:href="#au"/><use transform="matrix(0.056172839506172835,0,0,0.056172839506172835,72.85617283950617,0)" xlink:href="#an"/><use transform="matrix(0.056172839506172835,0,0,0.056172839506172835,84.09074074074074,0)" xlink:href="#aX"/><use transform="matrix(0.056172839506172835,0,0,0.056172839506172835,98.6395061728395,0)" xlink:href="#ax"/><use transform="matrix(0.056172839506172835,0,0,0.056172839506172835,110.94135802469135,0)" xlink:href="#ak"/><use transform="matrix(0.056172839506172835,0,0,0.056172839506172835,118.80555555555554,0)" xlink:href="#aq"/><use transform="matrix(0.056172839506172835,0,0,0.056172839506172835,131.1074074074074,0)" xlink:href="#as"/><use transform="matrix(0.056172839506172835,0,0,0.056172839506172835,145.65617283950618,0)" xlink:href="#ay"/><use transform="matrix(0.056172839506172835,0,0,0.056172839506172835,156.89074074074074,0)" xlink:href="#ay"/><use transform="matrix(0.056172839506172835,0,0,0.056172839506172835,168.1253086419753,0)" xlink:href="#al"/><use transform="matrix(0.056172839506172835,0,0,0.056172839506172835,180.42716049382716,0)" xlink:href="#ax"/><use transform="matrix(0.056172839506172835,0,0,0.056172839506172835,192.729012345679,0)" xlink:href="#aq"/><use transform="matrix(0.056172839506172835,0,0,0.056172839506172835,205.03086419753083,0)" xlink:href="#au"/></g><path fill="#fff" d="M230 0l2-204L168 0h-37L68-204 70 0H24v-248h70l56 185 57-185h69V0h-46" id="aY"/><g id="y"><use transform="matrix(0.056172839506172835,0,0,0.056172839506172835,0,0)" xlink:href="#an"/><use transform="matrix(0.056172839506172835,0,0,0.056172839506172835,11.234567901234566,0)" xlink:href="#aN"/><use transform="matrix(0.056172839506172835,0,0,0.056172839506172835,22.469135802469133,0)" xlink:href="#aj"/><use transform="matrix(0.056172839506172835,0,0,0.056172839506172835,34.77098765432098,0)" xlink:href="#aA"/><use transform="matrix(0.056172839506172835,0,0,0.056172839506172835,40.38827160493827,0)" xlink:href="#ak"/><use transform="matrix(0.056172839506172835,0,0,0.056172839506172835,48.252469135802464,0)" xlink:href="#an"/><use transform="matrix(0.056172839506172835,0,0,0.056172839506172835,59.487037037037034,0)" xlink:href="#ar"/><use transform="matrix(0.056172839506172835,0,0,0.056172839506172835,71.78888888888888,0)" xlink:href="#aB"/><use transform="matrix(0.056172839506172835,0,0,0.056172839506172835,84.09074074074073,0)" xlink:href="#aN"/><use transform="matrix(0.056172839506172835,0,0,0.056172839506172835,95.3253086419753,0)" xlink:href="#aY"/><use transform="matrix(0.056172839506172835,0,0,0.056172839506172835,112.12098765432097,0)" xlink:href="#al"/><use transform="matrix(0.056172839506172835,0,0,0.056172839506172835,124.42283950617283,0)" xlink:href="#aq"/><use transform="matrix(0.056172839506172835,0,0,0.056172839506172835,136.72469135802467,0)" xlink:href="#aA"/><use transform="matrix(0.056172839506172835,0,0,0.056172839506172835,142.34197530864196,0)" xlink:href="#au"/><use transform="matrix(0.056172839506172835,0,0,0.056172839506172835,149.02654320987654,0)" xlink:href="#al"/><use transform="matrix(0.056172839506172835,0,0,0.056172839506172835,161.32839506172837,0)" xlink:href="#ak"/></g><use transform="matrix(0.056172839506172835,0,0,0.056172839506172835,0,0)" xlink:href="#ao" id="z"/><path fill="#333" d="M141 0L90-78 38 0H4l68-98-65-92h35l48 74 47-74h35l-64 92 68 98h-35" id="aZ"/><path fill="#333" d="M115-194c55 1 70 41 70 98S169 2 115 4C84 4 66-9 55-30l1 105H24l-1-265h31l2 30c10-21 28-34 59-34zm-8 174c40 0 45-34 45-75s-6-73-45-74c-42 0-51 32-51 76 0 43 10 73 51 73" id="ba"/><g id="A"><use transform="matrix(0.05,0,0,0.05,0,0)" xlink:href="#R"/><use transform="matrix(0.05,0,0,0.05,10,0)" xlink:href="#aZ"/><use transform="matrix(0.05,0,0,0.05,19,0)" xlink:href="#ba"/><use transform="matrix(0.05,0,0,0.05,29,0)" xlink:href="#ag"/><use transform="matrix(0.05,0,0,0.05,32.95,0)" xlink:href="#U"/><use transform="matrix(0.05,0,0,0.05,38.900000000000006,0)" xlink:href="#R"/><use transform="matrix(0.05,0,0,0.05,48.900000000000006,0)" xlink:href="#T"/></g><path fill="#333" d="M103-251c84 0 111 97 45 133-19 10-37 24-39 52H78c0-63 77-55 77-114 0-30-21-42-52-43-32 0-53 17-56 46l-32-2c7-45 34-72 88-72zM77 0v-35h34V0H77" id="bb"/><g id="B"><use transform="matrix(0.05,0,0,0.05,0,0)" xlink:href="#X"/><use transform="matrix(0.05,0,0,0.05,5,0)" xlink:href="#aZ"/><use transform="matrix(0.05,0,0,0.05,14,0)" xlink:href="#bb"/></g><g id="C"><use transform="matrix(0.05,0,0,0.05,0,0)" xlink:href="#Y"/><use transform="matrix(0.05,0,0,0.05,10.950000000000001,0)" xlink:href="#ae"/><use transform="matrix(0.05,0,0,0.05,20.950000000000003,0)" xlink:href="#ag"/><use transform="matrix(0.05,0,0,0.05,24.900000000000002,0)" xlink:href="#Q"/></g><path fill="#333" d="M206 0h-36l-40-164L89 0H53L-1-190h32L70-26l43-164h34l41 164 42-164h31" id="bc"/><path fill="#333" d="M84 4C-5 8 30-112 23-190h32v120c0 31 7 50 39 49 72-2 45-101 50-169h31l1 190h-30c-1-10 1-25-2-33-11 22-28 36-60 37" id="bd"/><path fill="#333" d="M24 0v-261h32V0H24" id="be"/><g id="D"><use transform="matrix(0.05,0,0,0.05,0,0)" xlink:href="#bc"/><use transform="matrix(0.05,0,0,0.05,12.950000000000001,0)" xlink:href="#Z"/><use transform="matrix(0.05,0,0,0.05,22.950000000000003,0)" xlink:href="#bd"/><use transform="matrix(0.05,0,0,0.05,32.95,0)" xlink:href="#be"/><use transform="matrix(0.05,0,0,0.05,36.900000000000006,0)" xlink:href="#T"/></g><g id="E"><use transform="matrix(0.05,0,0,0.05,0,0)" xlink:href="#S"/><use transform="matrix(0.05,0,0,0.05,10,0)" xlink:href="#R"/><use transform="matrix(0.05,0,0,0.05,20,0)" xlink:href="#R"/><use transform="matrix(0.05,0,0,0.05,30,0)" xlink:href="#T"/></g><g id="F"><use transform="matrix(0.05,0,0,0.05,0,0)" xlink:href="#X"/><use transform="matrix(0.05,0,0,0.05,5,0)" xlink:href="#Z"/></g><path fill="#333" d="M115-194c53 0 69 39 70 98 0 66-23 100-70 100C84 3 66-7 56-30L54 0H23l1-261h32v101c10-23 28-34 59-34zm-8 174c40 0 45-34 45-75 0-40-5-75-45-74-42 0-51 32-51 76 0 43 10 73 51 73" id="bf"/><g id="G"><use transform="matrix(0.05,0,0,0.05,0,0)" xlink:href="#bf"/><use transform="matrix(0.05,0,0,0.05,10,0)" xlink:href="#R"/></g><use transform="matrix(0.05,0,0,0.05,0,0)" xlink:href="#af" id="H"/><path fill="#333" d="M179-190L93 31C79 59 56 82 12 73V49c39 6 53-20 64-50L1-190h34L92-34l54-156h33" id="bg"/><g id="I"><use transform="matrix(0.05,0,0,0.05,0,0)" xlink:href="#ba"/><use transform="matrix(0.05,0,0,0.05,10,0)" xlink:href="#R"/><use transform="matrix(0.05,0,0,0.05,20,0)" xlink:href="#U"/><use transform="matrix(0.05,0,0,0.05,25.950000000000003,0)" xlink:href="#ba"/><use transform="matrix(0.05,0,0,0.05,35.95,0)" xlink:href="#R"/><use transform="matrix(0.05,0,0,0.05,45.95,0)" xlink:href="#X"/><use transform="matrix(0.05,0,0,0.05,50.95,0)" xlink:href="#bd"/><use transform="matrix(0.05,0,0,0.05,60.95,0)" xlink:href="#af"/><use transform="matrix(0.05,0,0,0.05,70.95,0)" xlink:href="#be"/><use transform="matrix(0.05,0,0,0.05,74.9,0)" xlink:href="#be"/><use transform="matrix(0.05,0,0,0.05,78.85000000000001,0)" xlink:href="#bg"/></g><g id="J"><use transform="matrix(0.05,0,0,0.05,0,0)" xlink:href="#U"/><use transform="matrix(0.05,0,0,0.05,5.95,0)" xlink:href="#bd"/><use transform="matrix(0.05,0,0,0.05,15.949999999999998,0)" xlink:href="#S"/><use transform="matrix(0.05,0,0,0.05,25.950000000000003,0)" xlink:href="#S"/><use transform="matrix(0.05,0,0,0.05,35.95,0)" xlink:href="#ag"/><use transform="matrix(0.05,0,0,0.05,39.900000000000006,0)" xlink:href="#S"/><use transform="matrix(0.05,0,0,0.05,49.900000000000006,0)" xlink:href="#W"/></g><path fill="#333" d="M108 0H70L1-190h34L89-25l56-165h34" id="bh"/><g id="K"><use transform="matrix(0.05,0,0,0.05,0,0)" xlink:href="#Q"/><use transform="matrix(0.05,0,0,0.05,9,0)" xlink:href="#R"/><use transform="matrix(0.05,0,0,0.05,19,0)" xlink:href="#U"/><use transform="matrix(0.05,0,0,0.05,24.95,0)" xlink:href="#bh"/><use transform="matrix(0.05,0,0,0.05,33.95,0)" xlink:href="#R"/><use transform="matrix(0.05,0,0,0.05,43.95,0)" xlink:href="#U"/></g><g id="L"><use transform="matrix(0.05,0,0,0.05,0,0)" xlink:href="#Q"/><use transform="matrix(0.05,0,0,0.05,9,0)" xlink:href="#ag"/><use transform="matrix(0.05,0,0,0.05,12.949999999999998,0)" xlink:href="#T"/><use transform="matrix(0.05,0,0,0.05,22.95,0)" xlink:href="#R"/></g><g id="M"><use transform="matrix(0.05,0,0,0.05,0,0)" xlink:href="#ac"/><use transform="matrix(0.05,0,0,0.05,5,0)" xlink:href="#bd"/><use transform="matrix(0.05,0,0,0.05,15,0)" xlink:href="#S"/><use transform="matrix(0.05,0,0,0.05,25,0)" xlink:href="#ad"/><use transform="matrix(0.05,0,0,0.05,34,0)" xlink:href="#X"/><use transform="matrix(0.05,0,0,0.05,39,0)" xlink:href="#ag"/><use transform="matrix(0.05,0,0,0.05,42.95,0)" xlink:href="#Z"/><use transform="matrix(0.05,0,0,0.05,52.95,0)" xlink:href="#S"/></g><path fill="#333" d="M137-103V0h-34v-103L8-248h37l75 118 75-118h37" id="bi"/><g id="N"><use transform="matrix(0.05,0,0,0.05,0,0)" xlink:href="#bi"/><use transform="matrix(0.05,0,0,0.05,10.35,0)" xlink:href="#R"/><use transform="matrix(0.05,0,0,0.05,20.35,0)" xlink:href="#Q"/></g><path fill="#333" d="M136-208V0H84v-208H4v-40h212v40h-80" id="bj"/><path fill="#333" d="M220-157c-53 9-28 100-34 157h-49v-107c1-27-5-49-29-50C55-147 81-57 75 0H25l-1-190h47c2 12-1 28 3 38 10-53 101-56 108 0 13-22 24-43 59-42 82 1 51 116 57 194h-49v-107c-1-25-5-48-29-50" id="bk"/><g id="O"><use transform="matrix(0.056172839506172835,0,0,0.056172839506172835,0,0)" xlink:href="#bj"/><use transform="matrix(0.056172839506172835,0,0,0.056172839506172835,11.90864197530864,0)" xlink:href="#aI"/><use transform="matrix(0.056172839506172835,0,0,0.056172839506172835,17.525925925925925,0)" xlink:href="#bk"/><use transform="matrix(0.056172839506172835,0,0,0.056172839506172835,35.501234567901236,0)" xlink:href="#aE"/></g><path fill="#333" d="M24 0v-248h195v40H76v63h132v40H76v65h150V0H24" id="bl"/><path fill="#333" d="M144 0l-44-69L55 0H2l70-98-66-92h53l41 62 40-62h54l-67 91 71 99h-54" id="bm"/><path fill="#333" d="M135-194c53 0 70 44 70 98 0 56-19 98-73 100-31 1-45-17-59-34 3 33 2 69 2 105H25l-1-265h48c2 10 0 23 3 31 11-24 29-35 60-35zM114-30c33 0 39-31 40-66 0-38-9-64-40-64-56 0-55 130 0 130" id="bn"/><g id="P"><use transform="matrix(0.056172839506172835,0,0,0.056172839506172835,0,0)" xlink:href="#bl"/><use transform="matrix(0.056172839506172835,0,0,0.056172839506172835,13.481481481481481,0)" xlink:href="#bm"/><use transform="matrix(0.056172839506172835,0,0,0.056172839506172835,24.716049382716047,0)" xlink:href="#bn"/><use transform="matrix(0.056172839506172835,0,0,0.056172839506172835,37.0179012345679,0)" xlink:href="#aI"/><use transform="matrix(0.056172839506172835,0,0,0.056172839506172835,42.635185185185186,0)" xlink:href="#aH"/><use transform="matrix(0.056172839506172835,0,0,0.056172839506172835,50.49938271604938,0)" xlink:href="#aE"/><use transform="matrix(0.056172839506172835,0,0,0.056172839506172835,61.73395061728396,0)" xlink:href="#aL"/></g></defs></g></svg>