<svg xmlns="http://www.w3.org/2000/svg" xmlns:xlink="http://www.w3.org/1999/xlink" xmlns:lucid="lucid" width="2040" height="1900"><g transform="translate(-40 -60)" lucid:page-tab-id="m-5o7ONTd-nK"><path d="M280 120V88c0-4.42 3.58-8 8-8h312v40zM600 80h320v40H600zM920 80h520v40H920zM1440 80h352c4.42 0 8 3.58 8 8v32h-360z" stroke="#333" fill="#fff"/><path d="M600 1940H288c-4.42 0-8-3.58-8-8V120h320zM600 120h320v1820H600zM920 120h520v1820H920zM1800 120v1812c0 4.42-3.58 8-8 8h-352V120z" stroke="#333" fill="none"/><use xlink:href="#a" transform="matrix(1,0,0,1,280,80) translate(109.025 23.6)"/><use xlink:href="#b" transform="matrix(1,0,0,1,600,80) translate(108.55 23.6)"/><use xlink:href="#c" transform="matrix(1,0,0,1,920,80) translate(202.575 23.6)"/><use xlink:href="#d" transform="matrix(1,0,0,1,1440,80) translate(107.225 23.6)"/><use xlink:href="#e" transform="matrix(1,0,0,1,1440,80) translate(135.875 23.6)"/><use xlink:href="#f" transform="matrix(1,0,0,1,1440,80) translate(183.825 23.6)"/><path d="M622.15 368c0-4.42 3.58-8 8-8h259.7c4.42 0 8 3.58 8 8v84c0 4.42-3.58 8-8 8h-259.7c-4.42 0-8-3.58-8-8z" stroke="#000" stroke-opacity="0" stroke-width="2" fill="#4397ff"/><use xlink:href="#g" transform="matrix(1,0,0,1,627.7091187986856,365.561) translate(12.977 20.186105530457382)"/><use xlink:href="#h" transform="matrix(1,0,0,1,627.7091187986856,365.561) translate(12.977 44.903263826143444)"/><use xlink:href="#i" transform="matrix(1,0,0,1,627.7091187986856,365.561) translate(25.507226080451964 44.903263826143444)"/><use xlink:href="#j" transform="matrix(1,0,0,1,627.7091187986856,365.561) translate(12.977 69.62042212182952)"/><use xlink:href="#k" transform="matrix(1,0,0,1,627.7091187986856,365.561) translate(25.507226080451964 69.62042212182952)"/><path d="M477.85 1840c0 22.1-17.9 40-40 40s-40-17.9-40-40 17.9-40 40-40 40 17.9 40 40zm-68.3-28.3l56.6 56.6m-56.6 0l56.6-56.6" stroke="#333" fill="#fff"/><path d="M960 1448c0-4.42 3.58-8 8-8h424c4.42 0 8 3.58 8 8v169.57c0 4.42-3.58 8-8 8H968c-4.42 0-8-3.58-8-8z" stroke="#000" stroke-opacity="0" stroke-width="2" fill="#ff8839"/><use xlink:href="#l" transform="matrix(1,0,0,1,965.5609999999999,1445.561) translate(12.977 20.186105530457382)"/><use xlink:href="#h" transform="matrix(1,0,0,1,965.5609999999999,1445.561) translate(12.977 44.903263826143444)"/><use xlink:href="#m" transform="matrix(1,0,0,1,965.5609999999999,1445.561) translate(25.507226080451964 44.903263826143444)"/><use xlink:href="#j" transform="matrix(1,0,0,1,965.5609999999999,1445.561) translate(12.977 69.62042212182952)"/><use xlink:href="#n" transform="matrix(1,0,0,1,965.5609999999999,1445.561) translate(25.507226080451964 69.62042212182952)"/><use xlink:href="#j" transform="matrix(1,0,0,1,965.5609999999999,1445.561) translate(12.977 94.3375804175156)"/><use xlink:href="#o" transform="matrix(1,0,0,1,965.5609999999999,1445.561) translate(25.507226080451964 94.3375804175156)"/><use xlink:href="#j" transform="matrix(1,0,0,1,965.5609999999999,1445.561) translate(12.977 119.05473871320166)"/><use xlink:href="#p" transform="matrix(1,0,0,1,965.5609999999999,1445.561) translate(25.507226080451964 119.05473871320166)"/><path d="M290 1468c0-4.42 3.58-8 8-8h284c4.42 0 8 3.58 8 8v122.42c0 4.4-3.58 8-8 8H298c-4.42 0-8-3.6-8-8z" stroke="#000" stroke-opacity="0" stroke-width="2" fill="#4397ff"/><use xlink:href="#q" transform="matrix(1,0,0,1,295.5609999999999,1465.5609999999997) translate(12.977 20.186105530457382)"/><use xlink:href="#h" transform="matrix(1,0,0,1,295.5609999999999,1465.5609999999997) translate(12.977 44.903263826143444)"/><use xlink:href="#r" transform="matrix(1,0,0,1,295.5609999999999,1465.5609999999997) translate(25.507226080451964 44.903263826143444)"/><use xlink:href="#j" transform="matrix(1,0,0,1,295.5609999999999,1465.5609999999997) translate(12.977 69.62042212182952)"/><use xlink:href="#o" transform="matrix(1,0,0,1,295.5609999999999,1465.5609999999997) translate(25.507226080451964 69.62042212182952)"/><use xlink:href="#j" transform="matrix(1,0,0,1,295.5609999999999,1465.5609999999997) translate(12.977 94.3375804175156)"/><use xlink:href="#s" transform="matrix(1,0,0,1,295.5609999999999,1465.5609999999997) translate(25.507226080451964 94.3375804175156)"/><path d="M60 187.92c0-4.42 3.55-8.44 7.94-9L212.06 161c4.4-.56 7.94 2.58 7.94 7v104c0 4.42-3.58 8-8 8H68c-4.42 0-8-3.58-8-8z" stroke="#333" fill="#fff"/><use xlink:href="#t" transform="matrix(1,0,0,1,65,185) translate(40.79074074074074 24.615277777777777)"/><use xlink:href="#u" transform="matrix(1,0,0,1,65,185) translate(36.88672839506173 48.88194444444444)"/><use xlink:href="#v" transform="matrix(1,0,0,1,65,185) translate(37.44845679012346 73.14861111111111)"/><path d="M221 220h4.9m4.9 0h9.8m4.9 0h9.8m4.9 0h9.8m4.9 0h9.8m4.9 0h9.8m4.9 0h9.8m4.9 0h9.8m4.9 0h9.8m4.9 0h9.8m4.9 0h9.8m4.9 0h9.8m4.9 0h9.8m4.9 0h9.8m4.9 0h9.8m4.9 0h9.8m4.9 0h9.8m4.9 0h9.77m4.87 0h9.75m4.87 0h9.75m4.87 0h9.74m4.88 0h9.75m4.87 0h9.75m4.87 0h9.75m4.87 0h9.74m4.88 0h9.75m4.88 0h9.75m4.87 0h9.75m4.88 0h9.75m4.87 0h9.75m4.88 0h9.75m4.87 0h9.75m4.88 0h9.75m4.87 0h4.88" stroke="#333" fill="none"/><path d="M221 220.5h-.5v-1h.5" fill="#333"/><path d="M719.66 220l-14.26 4.64v-9.28z" stroke="#333" fill="#333"/><path d="M60 737.92c0-4.42 3.55-8.44 7.94-9L212.06 711c4.4-.56 7.94 2.58 7.94 7v104c0 4.42-3.58 8-8 8H68c-4.42 0-8-3.58-8-8z" stroke="#333" fill="#fff"/><use xlink:href="#w" transform="matrix(1,0,0,1,65,735) translate(29.612345679012343 35.86527777777778)"/><use xlink:href="#x" transform="matrix(1,0,0,1,65,735) translate(3.1830246913580424 60.13194444444444)"/><use xlink:href="#y" transform="matrix(1,0,0,1,65,735) translate(71.71388888888889 60.13194444444444)"/><path d="M300 538.63c0-4.4 3.58-8 8-8h259.7c4.42 0 8 3.6 8 8v147.14c0 4.4-3.58 8-8 8H308c-4.42 0-8-3.6-8-8z" stroke="#000" stroke-opacity="0" stroke-width="2" fill="#4397ff"/><use xlink:href="#z" transform="matrix(1,0,0,1,305.5609999999999,536.1945251129416) translate(12.977 20.186105530457382)"/><use xlink:href="#h" transform="matrix(1,0,0,1,305.5609999999999,536.1945251129416) translate(12.977 44.903263826143444)"/><use xlink:href="#A" transform="matrix(1,0,0,1,305.5609999999999,536.1945251129416) translate(25.507226080451964 44.903263826143444)"/><use xlink:href="#j" transform="matrix(1,0,0,1,305.5609999999999,536.1945251129416) translate(12.977 69.62042212182952)"/><use xlink:href="#B" transform="matrix(1,0,0,1,305.5609999999999,536.1945251129416) translate(25.507226080451964 69.62042212182952)"/><use xlink:href="#j" transform="matrix(1,0,0,1,305.5609999999999,536.1945251129416) translate(12.977 94.3375804175156)"/><use xlink:href="#C" transform="matrix(1,0,0,1,305.5609999999999,536.1945251129416) translate(25.507226080451964 94.3375804175156)"/><use xlink:href="#j" transform="matrix(1,0,0,1,305.5609999999999,536.1945251129416) translate(12.977 119.05473871320166)"/><use xlink:href="#D" transform="matrix(1,0,0,1,305.5609999999999,536.1945251129416) translate(25.507226080451964 119.05473871320166)"/><use xlink:href="#j" transform="matrix(1,0,0,1,305.5609999999999,536.1945251129416) translate(12.977 143.77189700888772)"/><use xlink:href="#E" transform="matrix(1,0,0,1,305.5609999999999,536.1945251129416) translate(25.507226080451964 143.77189700888772)"/><path d="M1482.95 368c0-4.42 3.58-8 8-8h214c4.42 0 8 3.58 8 8v84c0 4.42-3.58 8-8 8h-214c-4.42 0-8-3.58-8-8z" stroke="#333" stroke-width="2" fill="#999"/><use xlink:href="#F" transform="matrix(1,0,0,1,1494.9499355571597,372) translate(0 16.177777777777777)"/><use xlink:href="#G" transform="matrix(1,0,0,1,1494.9499355571597,372) translate(0 40.44444444444444)"/><path d="M1480 570.2c0-4.42 3.58-8 8-8h226.15c4.42 0 8 3.58 8 8v84c0 4.42-3.58 8-8 8H1488c-4.42 0-8-3.58-8-8z" stroke="#333" stroke-width="2" fill="#999"/><use xlink:href="#H" transform="matrix(1,0,0,1,1492.0000000000005,574.1999999999998) translate(0 16.177777777777777)"/><use xlink:href="#G" transform="matrix(1,0,0,1,1492.0000000000005,574.1999999999998) translate(0 40.44444444444444)"/><path d="M898.35 410h567.22" stroke="#333" fill="none"/><path d="M898.36 410.5h-.5v-1h.5" fill="#333"/><path d="M1480.33 410l-14.26 4.64v-9.28z" stroke="#333" fill="#333"/><path d="M1597.95 461.5v83.32" stroke="#333" fill="none"/><path d="M1598.45 461.5h-1v-.5h1" fill="#333"/><path d="M1597.95 559.58l-4.64-14.26h9.3z" stroke="#333" fill="#333"/><path d="M1478.5 612.2H592.1" stroke="#333" fill="none"/><path d="M1479 612.7h-.5v-1h.5" fill="#333"/><path d="M577.32 612.2l14.27-4.64v9.28z" stroke="#333" fill="#333"/><path d="M1482.95 728c0-4.42 3.58-8 8-8h226.15c4.42 0 8 3.58 8 8v84c0 4.42-3.58 8-8 8h-226.15c-4.42 0-8-3.58-8-8z" stroke="#333" stroke-width="2" fill="#999"/><use xlink:href="#I" transform="matrix(1,0,0,1,1494.9499355571593,732) translate(0 16.177777777777777)"/><use xlink:href="#J" transform="matrix(1,0,0,1,1494.9499355571593,732) translate(0 40.44444444444444)"/><path d="M1595.1 925.3c3.3-2.92 8.65-2.92 11.95 0l78.04 69.4c3.3 2.92 3.3 7.68 0 10.6l-78.05 69.4c-3.3 2.92-8.65 2.92-11.96 0l-78.05-69.4c-3.3-2.92-3.3-7.68 0-10.6z" stroke="#333" fill="#fff"/><g><use xlink:href="#K" transform="matrix(1,0,0,1,1516.0740593993432,925) translate(41.05499999999999 80.025)"/><use xlink:href="#L" transform="matrix(1,0,0,1,1516.0740593993432,925) translate(104.95500000000001 80.025)"/></g><path d="M1900 608c0-4.42 3.58-8 8-8h144c4.42 0 8 3.58 8 8v104c0 4.42-3.58 8-8 8h-144c-4.42 0-8-3.58-8-8z" fill="#fff" fill-opacity="0"/><path d="M1916 600h-8c-4.42 0-8 3.58-8 8v104c0 4.42 3.58 8 8 8h8" stroke="#333" fill="none"/><g><use xlink:href="#M" transform="matrix(1,0,0,1,1915,605) translate(4.599999999999994 15.399999999999993)"/><use xlink:href="#N" transform="matrix(1,0,0,1,1915,605) translate(43.5 15.399999999999993)"/><use xlink:href="#O" transform="matrix(1,0,0,1,1915,605) translate(95.4 15.399999999999993)"/><use xlink:href="#P" transform="matrix(1,0,0,1,1915,605) translate(42.5 36.99999999999999)"/><use xlink:href="#Q" transform="matrix(1,0,0,1,1915,605) translate(62.5 36.99999999999999)"/><use xlink:href="#R" transform="matrix(1,0,0,1,1915,605) translate(87.5 36.99999999999999)"/><use xlink:href="#S" transform="matrix(1,0,0,1,1915,605) translate(26.074999999999996 58.599999999999994)"/><use xlink:href="#T" transform="matrix(1,0,0,1,1915,605) translate(12.599999999999994 80.20000000000002)"/><use xlink:href="#U" transform="matrix(1,0,0,1,1915,605) translate(77.5 80.20000000000002)"/><use xlink:href="#V" transform="matrix(1,0,0,1,1915,605) translate(19.549999999999997 101.80000000000001)"/><use xlink:href="#W" transform="matrix(1,0,0,1,1915,605) translate(57.5 101.80000000000001)"/></g><path d="M1899 660.1l-4.9.98m-4.9.98l-9.82 1.96m-4.9.98l-9.83 1.96m-4.9.98l-9.82 1.96m-4.9.98l-9.83 1.96m-4.9.98l-9.82 1.96m-4.9.98l-9.83 1.96m-4.9.98l-9.82 1.96m-4.9.98l-9.83 1.96m-4.9.98l-9.82 1.96m-4.9.98l-9.83 1.96m-4.9.98l-9.82 1.96m-4.9.98l-9.83 1.96m-4.9.98l-9.82 1.96m-4.9.98l-9.83 1.96m-4.9.98l-9.82 1.96m-4.9.98l-9.82 1.96m-4.9.98l-9.82 1.96m-4.9.98l-9.82 1.96m-4.9.98l-9.83 1.96m-4.9.98l-4.92.98" stroke="#333" fill="none"/><path d="M1899.5 660.5l-.4.1-.2-1 .6-.1M1604.55 719h-3.08l2.96-.6" fill="#333"/><path d="M780 210c0 16.57-13.43 30-30 30s-30-13.43-30-30 13.43-30 30-30 30 13.43 30 30z" stroke="#333" fill="#fff"/><path d="M750 241v102.62" stroke="#333" fill="none"/><path d="M750 240.5l.5-.02v.53h-1v-.54" fill="#333"/><path d="M750 358.38l-4.64-14.26h9.28z" stroke="#333" fill="#333"/><path d="M960 1068c0-4.42 3.58-8 8-8h424c4.42 0 8 3.58 8 8v202.8c0 4.4-3.58 8-8 8H968c-4.42 0-8-3.6-8-8z" stroke="#000" stroke-opacity="0" stroke-width="2" fill="#ff8839"/><g><use xlink:href="#X" transform="matrix(1,0,0,1,965.561,1065.561) translate(12.977 20.186105530457382)"/><use xlink:href="#h" transform="matrix(1,0,0,1,965.561,1065.561) translate(12.977 44.903263826143444)"/><use xlink:href="#i" transform="matrix(1,0,0,1,965.561,1065.561) translate(25.507226080451964 44.903263826143444)"/><use xlink:href="#j" transform="matrix(1,0,0,1,965.561,1065.561) translate(12.977 69.62042212182952)"/><use xlink:href="#o" transform="matrix(1,0,0,1,965.561,1065.561) translate(25.507226080451964 69.62042212182952)"/><use xlink:href="#j" transform="matrix(1,0,0,1,965.561,1065.561) translate(12.977 94.3375804175156)"/><use xlink:href="#A" transform="matrix(1,0,0,1,965.561,1065.561) translate(25.507226080451964 94.3375804175156)"/><use xlink:href="#j" transform="matrix(1,0,0,1,965.561,1065.561) translate(12.977 119.05473871320166)"/><use xlink:href="#B" transform="matrix(1,0,0,1,965.561,1065.561) translate(25.507226080451964 119.05473871320166)"/><use xlink:href="#j" transform="matrix(1,0,0,1,965.561,1065.561) translate(12.977 143.77189700888772)"/><use xlink:href="#Y" transform="matrix(1,0,0,1,965.561,1065.561) translate(25.507226080451964 143.77189700888772)"/><use xlink:href="#j" transform="matrix(1,0,0,1,965.561,1065.561) translate(12.977 168.48905530457378)"/><use xlink:href="#Z" transform="matrix(1,0,0,1,965.561,1065.561) translate(25.507226080451964 168.48905530457378)"/><use xlink:href="#j" transform="matrix(1,0,0,1,965.561,1065.561) translate(12.977 193.20621360025984)"/><use xlink:href="#E" transform="matrix(1,0,0,1,965.561,1065.561) translate(25.507226080451964 193.20621360025984)"/></g><path d="M1604.02 821.5v85.19" stroke="#333" fill="none"/><path d="M1604.52 821.5h-1v-.5h1" fill="#333"/><path d="M1604.02 921.46l-4.63-14.27h9.26z" stroke="#333" fill="#333"/><path d="M1535.1 1169.9h-118.72v-1h118.7m66.5-11.47l-.43 3.2-1.24 3-1.98 2.6-2.6 2-3 1.24-3.2.42h-31.08v-1h31l3.02-.4 2.75-1.14 2.4-1.84 1.84-2.4 1.14-2.74.4-3.02v-79.53h1" fill="#333"/><path d="M1601.57 1077.84h-1v-.47l1-.07M1415.88 1174.03l-14.26-4.64 14.26-4.64z" fill="#333"/><path d="M1416.38 1174.72l-16.38-5.33 16.38-5.33m-13.14 5.32l12.14 3.94v-7.9" fill="#333"/><g><use xlink:href="#aa" transform="matrix(1,0,0,1,1535.0931543024817,1158.5932717191392) translate(0.005000000000000782 14.4)"/></g><path d="M221 770h5m5 0h10m5 0h10m5 0h9.98m5 0h10m5 0h10m5 0h10m5 0h9.98m5 0h10m5 0h10m5 0h10m4.98 0h10m5 0h10m5 0h10m5 0h10m4.98 0h10m5 0h10m5 0h10m5 0h9.98m5 0h10m5 0h10m5 0h10m5 0h9.98m5 0h10m5 0h10m5 0h10m5 0h9.98m5 0h10m5 0h10m5 0h10m4.98 0h10m5 0h10m5 0h10m5 0h10m4.98 0h10m5 0h10m5 0h10m5 0h9.98m5 0h10m5 0h10m5 0h10m5 0h9.98m5 0h10m5 0h10m5 0h10m5 0h9.98m5 0h10m5 0h10m5 0h10m5 0h9.98m5 0h10m5 0h10m5 0h10m4.98 0h10m5 0h10m5 0h10m5 0h10m4.98 0h10m5 0h10m5 0h10m5 0h9.98m5 0h10m5 0h10m5 0h10m5 0h9.98m5 0h10m5 0h10m5 0h10m5 0h9.98m5 0h10m5 0h10m5 0h10m5 0h9.98m5 0h10m5 0h10m5 0h10m4.98 0h10m5 0h10m5 0h10m5 0h10m4.98 0h10m5 0h10m5 0h10m5 0h5" stroke="#333" fill="none"/><path d="M221 770.5h-.5v-1h.5" fill="#333"/><path d="M1480.33 770l-14.26 4.64v-9.28z" stroke="#333" fill="#333"/><path d="M1604.02 821.5V849c0 6.63 5.38 12 12 12h138.08c6.63 0 12-5.37 12-12v-67c0-6.63-5.37-12-12-12h-11.62" stroke="#333" fill="none"/><path d="M1604.52 821.5h-1v-.5h1" fill="#333"/><path d="M1727.72 770l14.26-4.64v9.28z" stroke="#333" fill="#333"/><path d="M1180 1279.3v144.32" stroke="#333" fill="none"/><path d="M1180.5 1279.3h-1v-.5h1" fill="#333"/><path d="M1180 1438.38l-4.64-14.26h9.28z" stroke="#333" fill="#333"/><path d="M959.5 1532.8H606.38" stroke="#333" fill="none"/><path d="M960 1533.3h-.5v-1h.5" fill="#333"/><path d="M591.62 1532.8l14.26-4.65v9.27z" stroke="#333" fill="#333"/><path d="M440 1598.92V1783.25" stroke="#333" fill="none"/><path d="M440.5 1598.93h-1v-.5h1" fill="#333"/><path d="M440 1798l-4.64-14.25h9.28z" stroke="#333" fill="#333"/><defs><path fill="#333" d="M135-143c-3-34-86-38-87 0 15 53 115 12 119 90S17 21 10-45l28-5c4 36 97 45 98 0-10-56-113-15-118-90-4-57 82-63 122-42 12 7 21 19 24 35" id="ab"/><path fill="#333" d="M100-194c63 0 86 42 84 106H49c0 40 14 67 53 68 26 1 43-12 49-29l28 8c-11 28-37 45-77 45C44 4 14-33 15-96c1-61 26-98 85-98zm52 81c6-60-76-77-97-28-3 7-6 17-6 28h103" id="ac"/><path fill="#333" d="M117-194c89-4 53 116 60 194h-32v-121c0-31-8-49-39-48C34-167 62-67 57 0H25l-1-190h30c1 10-1 24 2 32 11-22 29-35 61-36" id="ad"/><path fill="#333" d="M85-194c31 0 48 13 60 33l-1-100h32l1 261h-30c-2-10 0-23-3-31C134-8 116 4 85 4 32 4 16-35 15-94c0-66 23-100 70-100zm9 24c-40 0-46 34-46 75 0 40 6 74 45 74 42 0 51-32 51-76 0-42-9-74-50-73" id="ae"/><path fill="#333" d="M114-163C36-179 61-72 57 0H25l-1-190h30c1 12-1 29 2 39 6-27 23-49 58-41v29" id="af"/><path fill="#333" d="M205 0l-28-72H64L36 0H1l101-248h38L239 0h-34zm-38-99l-47-123c-12 45-31 82-46 123h93" id="ag"/><path fill="#333" d="M177-190C167-65 218 103 67 71c-23-6-38-20-44-43l32-5c15 47 100 32 89-28v-30C133-14 115 1 83 1 29 1 15-40 15-95c0-56 16-97 71-98 29-1 48 16 59 35 1-10 0-23 2-32h30zM94-22c36 0 50-32 50-73 0-42-14-75-50-75-39 0-46 34-46 75s6 73 46 73" id="ah"/><path fill="#333" d="M59-47c-2 24 18 29 38 22v24C64 9 27 4 27-40v-127H5v-23h24l9-43h21v43h35v23H59v120" id="ai"/><g id="a"><use transform="matrix(0.05,0,0,0.05,0,0)" xlink:href="#ab"/><use transform="matrix(0.05,0,0,0.05,9,0)" xlink:href="#ac"/><use transform="matrix(0.05,0,0,0.05,19,0)" xlink:href="#ad"/><use transform="matrix(0.05,0,0,0.05,29,0)" xlink:href="#ae"/><use transform="matrix(0.05,0,0,0.05,39,0)" xlink:href="#ac"/><use transform="matrix(0.05,0,0,0.05,49,0)" xlink:href="#af"/><use transform="matrix(0.05,0,0,0.05,54.95,0)" xlink:href="#ag"/><use transform="matrix(0.05,0,0,0.05,66.95,0)" xlink:href="#ah"/><use transform="matrix(0.05,0,0,0.05,76.95,0)" xlink:href="#ac"/><use transform="matrix(0.05,0,0,0.05,86.95,0)" xlink:href="#ad"/><use transform="matrix(0.05,0,0,0.05,96.95,0)" xlink:href="#ai"/></g><path fill="#333" d="M127-220V0H93v-220H8v-28h204v28h-85" id="aj"/><path fill="#333" d="M100-194c62-1 85 37 85 99 1 63-27 99-86 99S16-35 15-95c0-66 28-99 85-99zM99-20c44 1 53-31 53-75 0-43-8-75-51-75s-53 32-53 75 10 74 51 75" id="ak"/><path fill="#333" d="M143 0L79-87 56-68V0H24v-261h32v163l83-92h37l-77 82L181 0h-38" id="al"/><g id="b"><use transform="matrix(0.05,0,0,0.05,0,0)" xlink:href="#ab"/><use transform="matrix(0.05,0,0,0.05,9,0)" xlink:href="#ac"/><use transform="matrix(0.05,0,0,0.05,19,0)" xlink:href="#ad"/><use transform="matrix(0.05,0,0,0.05,29,0)" xlink:href="#ae"/><use transform="matrix(0.05,0,0,0.05,39,0)" xlink:href="#ac"/><use transform="matrix(0.05,0,0,0.05,49,0)" xlink:href="#af"/><use transform="matrix(0.05,0,0,0.05,54.95,0)" xlink:href="#aj"/><use transform="matrix(0.05,0,0,0.05,63.900000000000006,0)" xlink:href="#ak"/><use transform="matrix(0.05,0,0,0.05,73.9,0)" xlink:href="#al"/><use transform="matrix(0.05,0,0,0.05,82.9,0)" xlink:href="#ac"/><use transform="matrix(0.05,0,0,0.05,92.9,0)" xlink:href="#ad"/></g><path fill="#333" d="M96-169c-40 0-48 33-48 73s9 75 48 75c24 0 41-14 43-38l32 2c-6 37-31 61-74 61-59 0-76-41-82-99-10-93 101-131 147-64 4 7 5 14 7 22l-32 3c-4-21-16-35-41-35" id="am"/><path fill="#333" d="M24-231v-30h32v30H24zM24 0v-190h32V0H24" id="an"/><path fill="#333" d="M115-194c55 1 70 41 70 98S169 2 115 4C84 4 66-9 55-30l1 105H24l-1-265h31l2 30c10-21 28-34 59-34zm-8 174c40 0 45-34 45-75s-6-73-45-74c-42 0-51 32-51 76 0 43 10 73 51 73" id="ao"/><g id="c"><use transform="matrix(0.05,0,0,0.05,0,0)" xlink:href="#af"/><use transform="matrix(0.05,0,0,0.05,5.95,0)" xlink:href="#ac"/><use transform="matrix(0.05,0,0,0.05,15.949999999999998,0)" xlink:href="#am"/><use transform="matrix(0.05,0,0,0.05,24.95,0)" xlink:href="#an"/><use transform="matrix(0.05,0,0,0.05,28.899999999999995,0)" xlink:href="#ao"/><use transform="matrix(0.05,0,0,0.05,38.9,0)" xlink:href="#an"/><use transform="matrix(0.05,0,0,0.05,42.85,0)" xlink:href="#ac"/><use transform="matrix(0.05,0,0,0.05,52.85,0)" xlink:href="#ad"/><use transform="matrix(0.05,0,0,0.05,62.85,0)" xlink:href="#ai"/><use transform="matrix(0.05,0,0,0.05,67.85,0)" xlink:href="#ag"/><use transform="matrix(0.05,0,0,0.05,79.85,0)" xlink:href="#ah"/><use transform="matrix(0.05,0,0,0.05,89.85,0)" xlink:href="#ac"/><use transform="matrix(0.05,0,0,0.05,99.85,0)" xlink:href="#ad"/><use transform="matrix(0.05,0,0,0.05,109.84999999999998,0)" xlink:href="#ai"/></g><path fill="#333" d="M140-251c81 0 123 46 123 126C263-46 219 4 140 4 59 4 17-45 17-125s42-126 123-126zm0 227c63 0 89-41 89-101s-29-99-89-99c-61 0-89 39-89 99S79-25 140-24" id="ap"/><path fill="#333" d="M101-234c-31-9-42 10-38 44h38v23H63V0H32v-167H5v-23h27c-7-52 17-82 69-68v24" id="aq"/><g id="d"><use transform="matrix(0.05,0,0,0.05,0,0)" xlink:href="#ap"/><use transform="matrix(0.05,0,0,0.05,14,0)" xlink:href="#aq"/><use transform="matrix(0.05,0,0,0.05,18.65,0)" xlink:href="#aq"/></g><path fill="#333" d="M106-169C34-169 62-67 57 0H25v-261h32l-1 103c12-21 28-36 61-36 89 0 53 116 60 194h-32v-121c2-32-8-49-39-48" id="ar"/><path fill="#333" d="M141-36C126-15 110 5 73 4 37 3 15-17 15-53c-1-64 63-63 125-63 3-35-9-54-41-54-24 1-41 7-42 31l-33-3c5-37 33-52 76-52 45 0 72 20 72 64v82c-1 20 7 32 28 27v20c-31 9-61-2-59-35zM48-53c0 20 12 33 32 33 41-3 63-29 60-74-43 2-92-5-92 41" id="as"/><g id="e"><use transform="matrix(0.05,0,0,0.05,0,0)" xlink:href="#am"/><use transform="matrix(0.05,0,0,0.05,9,0)" xlink:href="#ar"/><use transform="matrix(0.05,0,0,0.05,19,0)" xlink:href="#as"/><use transform="matrix(0.05,0,0,0.05,29,0)" xlink:href="#an"/><use transform="matrix(0.05,0,0,0.05,32.95,0)" xlink:href="#ad"/></g><path fill="#333" d="M210-169c-67 3-38 105-44 169h-31v-121c0-29-5-50-35-48C34-165 62-65 56 0H25l-1-190h30c1 10-1 24 2 32 10-44 99-50 107 0 11-21 27-35 58-36 85-2 47 119 55 194h-31v-121c0-29-5-49-35-48" id="at"/><g id="f"><use transform="matrix(0.05,0,0,0.05,0,0)" xlink:href="#at"/><use transform="matrix(0.05,0,0,0.05,14.950000000000001,0)" xlink:href="#ac"/><use transform="matrix(0.05,0,0,0.05,24.950000000000003,0)" xlink:href="#ai"/><use transform="matrix(0.05,0,0,0.05,29.950000000000003,0)" xlink:href="#ar"/><use transform="matrix(0.05,0,0,0.05,39.95,0)" xlink:href="#ak"/><use transform="matrix(0.05,0,0,0.05,49.95,0)" xlink:href="#ae"/><use transform="matrix(0.05,0,0,0.05,59.95,0)" xlink:href="#ab"/></g><path fill="#fff" d="M133-34C117-15 103 5 69 4 32 3 11-16 11-54c-1-60 55-63 116-61 1-26-3-47-28-47-18 1-26 9-28 27l-52-2c7-38 36-58 82-57s74 22 75 68l1 82c-1 14 12 18 25 15v27c-30 8-71 5-69-32zm-48 3c29 0 43-24 42-57-32 0-66-3-65 30 0 17 8 27 23 27" id="au"/><path fill="#fff" d="M135-194c53 0 70 44 70 98 0 56-19 98-73 100-31 1-45-17-59-34 3 33 2 69 2 105H25l-1-265h48c2 10 0 23 3 31 11-24 29-35 60-35zM114-30c33 0 39-31 40-66 0-38-9-64-40-64-56 0-55 130 0 130" id="av"/><path fill="#fff" d="M135-150c-39-12-60 13-60 57V0H25l-1-190h47c2 13-1 29 3 40 6-28 27-53 61-41v41" id="aw"/><path fill="#fff" d="M110-194c64 0 96 36 96 99 0 64-35 99-97 99-61 0-95-36-95-99 0-62 34-99 96-99zm-1 164c35 0 45-28 45-65 0-40-10-65-43-65-34 0-45 26-45 65 0 36 10 65 43 65" id="ax"/><path fill="#fff" d="M128 0H69L1-190h53L99-40l48-150h52" id="ay"/><path fill="#fff" d="M185-48c-13 30-37 53-82 52C43 2 14-33 14-96s30-98 90-98c62 0 83 45 84 108H66c0 31 8 55 39 56 18 0 30-7 34-22zm-45-69c5-46-57-63-70-21-2 6-4 13-4 21h74" id="az"/><g id="g"><use transform="matrix(0.057215644202977006,0,0,0.057215644202977006,0,0)" xlink:href="#au"/><use transform="matrix(0.057215644202977006,0,0,0.057215644202977006,11.443128840595401,0)" xlink:href="#av"/><use transform="matrix(0.057215644202977006,0,0,0.057215644202977006,23.973354921047367,0)" xlink:href="#av"/><use transform="matrix(0.057215644202977006,0,0,0.057215644202977006,36.50358100149933,0)" xlink:href="#aw"/><use transform="matrix(0.057215644202977006,0,0,0.057215644202977006,44.513771189916106,0)" xlink:href="#ax"/><use transform="matrix(0.057215644202977006,0,0,0.057215644202977006,57.04399727036807,0)" xlink:href="#ay"/><use transform="matrix(0.057215644202977006,0,0,0.057215644202977006,68.48712611096347,0)" xlink:href="#az"/></g><path fill="#fff" d="M14-72v-43h91v43H14" id="aA"/><use transform="matrix(0.057215644202977006,0,0,0.057215644202977006,0,0)" xlink:href="#aA" id="h"/><path fill="#fff" d="M137-138c1-29-70-34-71-4 15 46 118 7 119 86 1 83-164 76-172 9l43-7c4 19 20 25 44 25 33 8 57-30 24-41C81-84 22-81 20-136c-2-80 154-74 161-7" id="aB"/><path fill="#fff" d="M135-194c87-1 58 113 63 194h-50c-7-57 23-157-34-157-59 0-34 97-39 157H25l-1-190h47c2 12-1 28 3 38 12-26 28-41 61-42" id="aC"/><path fill="#fff" d="M88-194c31-1 46 15 58 34l-1-101h50l1 261h-48c-2-10 0-23-3-31C134-8 116 4 84 4 32 4 16-41 15-95c0-56 19-97 73-99zm17 164c33 0 40-30 41-66 1-37-9-64-41-64s-38 30-39 65c0 43 13 65 39 65" id="aD"/><path fill="#fff" d="M199 0l-22-63H83L61 0H9l90-248h61L250 0h-51zm-33-102l-36-108c-10 38-24 72-36 108h72" id="aE"/><path fill="#fff" d="M195-6C206 82 75 100 31 46c-4-6-6-13-8-21l49-6c3 16 16 24 34 25 40 0 42-37 40-79-11 22-30 35-61 35-53 0-70-43-70-97 0-56 18-96 73-97 30 0 46 14 59 34l2-30h47zm-90-29c32 0 41-27 41-63 0-35-9-62-40-62-32 0-39 29-40 63 0 36 9 62 39 62" id="aF"/><path fill="#fff" d="M115-3C79 11 28 4 28-45v-112H4v-33h27l15-45h31v45h36v33H77v99c-1 23 16 31 38 25v30" id="aG"/><path fill="#fff" d="M24 0v-54h51V0H24" id="aH"/><g id="i"><use transform="matrix(0.057215644202977006,0,0,0.057215644202977006,0,0)" xlink:href="#aB"/><use transform="matrix(0.057215644202977006,0,0,0.057215644202977006,11.443128840595401,0)" xlink:href="#az"/><use transform="matrix(0.057215644202977006,0,0,0.057215644202977006,22.886257681190802,0)" xlink:href="#aC"/><use transform="matrix(0.057215644202977006,0,0,0.057215644202977006,35.416483761642766,0)" xlink:href="#aD"/><use transform="matrix(0.057215644202977006,0,0,0.057215644202977006,47.946709842094734,0)" xlink:href="#az"/><use transform="matrix(0.057215644202977006,0,0,0.057215644202977006,59.38983868269013,0)" xlink:href="#aw"/><use transform="matrix(0.057215644202977006,0,0,0.057215644202977006,67.40002887110691,0)" xlink:href="#aE"/><use transform="matrix(0.057215644202977006,0,0,0.057215644202977006,82.21888071967795,0)" xlink:href="#aF"/><use transform="matrix(0.057215644202977006,0,0,0.057215644202977006,94.74910680012992,0)" xlink:href="#az"/><use transform="matrix(0.057215644202977006,0,0,0.057215644202977006,106.19223564072533,0)" xlink:href="#aC"/><use transform="matrix(0.057215644202977006,0,0,0.057215644202977006,118.72246172117728,0)" xlink:href="#aG"/><use transform="matrix(0.057215644202977006,0,0,0.057215644202977006,125.53112338133155,0)" xlink:href="#aH"/><use transform="matrix(0.057215644202977006,0,0,0.057215644202977006,131.25268780162926,0)" xlink:href="#au"/><use transform="matrix(0.057215644202977006,0,0,0.057215644202977006,142.69581664222466,0)" xlink:href="#aD"/><use transform="matrix(0.057215644202977006,0,0,0.057215644202977006,155.22604272267662,0)" xlink:href="#aD"/><use transform="matrix(0.057215644202977006,0,0,0.057215644202977006,167.7562688031286,0)" xlink:href="#aw"/><use transform="matrix(0.057215644202977006,0,0,0.057215644202977006,175.76645899154536,0)" xlink:href="#az"/><use transform="matrix(0.057215644202977006,0,0,0.057215644202977006,187.20958783214076,0)" xlink:href="#aB"/><use transform="matrix(0.057215644202977006,0,0,0.057215644202977006,198.65271667273615,0)" xlink:href="#aB"/></g><use transform="matrix(0.057215644202977006,0,0,0.057215644202977006,0,0)" xlink:href="#aA" id="j"/><path fill="#fff" d="M220-157c-53 9-28 100-34 157h-49v-107c1-27-5-49-29-50C55-147 81-57 75 0H25l-1-190h47c2 12-1 28 3 38 10-53 101-56 108 0 13-22 24-43 59-42 82 1 51 116 57 194h-49v-107c-1-25-5-48-29-50" id="aI"/><path fill="#fff" d="M85 4C-2 5 27-109 22-190h50c7 57-23 150 33 157 60-5 35-97 40-157h50l1 190h-47c-2-12 1-28-3-38-12 25-28 42-61 42" id="aJ"/><g id="k"><use transform="matrix(0.057215644202977006,0,0,0.057215644202977006,0,0)" xlink:href="#au"/><use transform="matrix(0.057215644202977006,0,0,0.057215644202977006,11.443128840595401,0)" xlink:href="#aI"/><use transform="matrix(0.057215644202977006,0,0,0.057215644202977006,29.752134985548036,0)" xlink:href="#ax"/><use transform="matrix(0.057215644202977006,0,0,0.057215644202977006,42.28236106600001,0)" xlink:href="#aJ"/><use transform="matrix(0.057215644202977006,0,0,0.057215644202977006,54.812587146451975,0)" xlink:href="#aC"/><use transform="matrix(0.057215644202977006,0,0,0.057215644202977006,67.34281322690394,0)" xlink:href="#aG"/></g><path fill="#fff" d="M123 10C108 53 80 86 19 72V37c35 8 53-11 59-39L3-190h52l48 148c12-52 28-100 44-148h51" id="aK"/><path fill="#fff" d="M136-208V0H84v-208H4v-40h212v40h-80" id="aL"/><path fill="#fff" d="M190-63c-7 42-38 67-86 67-59 0-84-38-90-98-12-110 154-137 174-36l-49 2c-2-19-15-32-35-32-30 0-35 28-38 64-6 74 65 87 74 30" id="aM"/><path fill="#fff" d="M25-224v-37h50v37H25zM25 0v-190h50V0H25" id="aN"/><g id="l"><use transform="matrix(0.057215644202977006,0,0,0.057215644202977006,0,0)" xlink:href="#az"/><use transform="matrix(0.057215644202977006,0,0,0.057215644202977006,11.443128840595401,0)" xlink:href="#aC"/><use transform="matrix(0.057215644202977006,0,0,0.057215644202977006,23.973354921047367,0)" xlink:href="#aG"/><use transform="matrix(0.057215644202977006,0,0,0.057215644202977006,30.782016581201628,0)" xlink:href="#aw"/><use transform="matrix(0.057215644202977006,0,0,0.057215644202977006,38.79220676961841,0)" xlink:href="#aK"/><use transform="matrix(0.057215644202977006,0,0,0.057215644202977006,50.23533561021381,0)" xlink:href="#aL"/><use transform="matrix(0.057215644202977006,0,0,0.057215644202977006,61.62124880660624,0)" xlink:href="#aw"/><use transform="matrix(0.057215644202977006,0,0,0.057215644202977006,69.63143899502302,0)" xlink:href="#au"/><use transform="matrix(0.057215644202977006,0,0,0.057215644202977006,81.07456783561842,0)" xlink:href="#aC"/><use transform="matrix(0.057215644202977006,0,0,0.057215644202977006,93.60479391607039,0)" xlink:href="#aB"/><use transform="matrix(0.057215644202977006,0,0,0.057215644202977006,105.0479227566658,0)" xlink:href="#au"/><use transform="matrix(0.057215644202977006,0,0,0.057215644202977006,116.4910515972612,0)" xlink:href="#aM"/><use transform="matrix(0.057215644202977006,0,0,0.057215644202977006,127.93418043785661,0)" xlink:href="#aG"/><use transform="matrix(0.057215644202977006,0,0,0.057215644202977006,134.74284209801087,0)" xlink:href="#aN"/><use transform="matrix(0.057215644202977006,0,0,0.057215644202977006,140.46440651830858,0)" xlink:href="#ax"/><use transform="matrix(0.057215644202977006,0,0,0.057215644202977006,152.99463259876055,0)" xlink:href="#aC"/></g><path fill="#fff" d="M147 0L96-86 75-71V0H25v-261h50v150l67-79h53l-66 74L201 0h-54" id="aO"/><g id="m"><use transform="matrix(0.057215644202977006,0,0,0.057215644202977006,0,0)" xlink:href="#aG"/><use transform="matrix(0.057215644202977006,0,0,0.057215644202977006,6.8086616601542636,0)" xlink:href="#ax"/><use transform="matrix(0.057215644202977006,0,0,0.057215644202977006,19.33888774060623,0)" xlink:href="#aO"/><use transform="matrix(0.057215644202977006,0,0,0.057215644202977006,30.782016581201628,0)" xlink:href="#az"/><use transform="matrix(0.057215644202977006,0,0,0.057215644202977006,42.22514542179703,0)" xlink:href="#aC"/><use transform="matrix(0.057215644202977006,0,0,0.057215644202977006,54.75537150224899,0)" xlink:href="#aE"/><use transform="matrix(0.057215644202977006,0,0,0.057215644202977006,69.57422335082003,0)" xlink:href="#aI"/><use transform="matrix(0.057215644202977006,0,0,0.057215644202977006,87.88322949577267,0)" xlink:href="#ax"/><use transform="matrix(0.057215644202977006,0,0,0.057215644202977006,100.41345557622464,0)" xlink:href="#aJ"/><use transform="matrix(0.057215644202977006,0,0,0.057215644202977006,112.9436816566766,0)" xlink:href="#aC"/><use transform="matrix(0.057215644202977006,0,0,0.057215644202977006,125.47390773712857,0)" xlink:href="#aG"/></g><g id="n"><use transform="matrix(0.057215644202977006,0,0,0.057215644202977006,0,0)" xlink:href="#aw"/><use transform="matrix(0.057215644202977006,0,0,0.057215644202977006,8.01019018841678,0)" xlink:href="#az"/><use transform="matrix(0.057215644202977006,0,0,0.057215644202977006,19.45331902901218,0)" xlink:href="#aM"/><use transform="matrix(0.057215644202977006,0,0,0.057215644202977006,30.896447869607584,0)" xlink:href="#aN"/><use transform="matrix(0.057215644202977006,0,0,0.057215644202977006,36.61801228990529,0)" xlink:href="#av"/><use transform="matrix(0.057215644202977006,0,0,0.057215644202977006,49.14823837035725,0)" xlink:href="#aN"/><use transform="matrix(0.057215644202977006,0,0,0.057215644202977006,54.86980279065495,0)" xlink:href="#az"/><use transform="matrix(0.057215644202977006,0,0,0.057215644202977006,66.31293163125035,0)" xlink:href="#aC"/><use transform="matrix(0.057215644202977006,0,0,0.057215644202977006,78.84315771170232,0)" xlink:href="#aG"/><use transform="matrix(0.057215644202977006,0,0,0.057215644202977006,85.65181937185658,0)" xlink:href="#aE"/><use transform="matrix(0.057215644202977006,0,0,0.057215644202977006,100.47067122042762,0)" xlink:href="#aD"/><use transform="matrix(0.057215644202977006,0,0,0.057215644202977006,113.00089730087959,0)" xlink:href="#aD"/><use transform="matrix(0.057215644202977006,0,0,0.057215644202977006,125.53112338133155,0)" xlink:href="#aw"/><use transform="matrix(0.057215644202977006,0,0,0.057215644202977006,133.54131356974833,0)" xlink:href="#az"/><use transform="matrix(0.057215644202977006,0,0,0.057215644202977006,144.98444241034372,0)" xlink:href="#aB"/><use transform="matrix(0.057215644202977006,0,0,0.057215644202977006,156.4275712509391,0)" xlink:href="#aB"/></g><path fill="#fff" d="M24 0v-248h52V0H24" id="aP"/><g id="o"><use transform="matrix(0.057215644202977006,0,0,0.057215644202977006,0,0)" xlink:href="#aG"/><use transform="matrix(0.057215644202977006,0,0,0.057215644202977006,6.8086616601542636,0)" xlink:href="#aw"/><use transform="matrix(0.057215644202977006,0,0,0.057215644202977006,14.818851848571045,0)" xlink:href="#au"/><use transform="matrix(0.057215644202977006,0,0,0.057215644202977006,26.261980689166442,0)" xlink:href="#aC"/><use transform="matrix(0.057215644202977006,0,0,0.057215644202977006,38.7922067696184,0)" xlink:href="#aB"/><use transform="matrix(0.057215644202977006,0,0,0.057215644202977006,50.2353356102138,0)" xlink:href="#au"/><use transform="matrix(0.057215644202977006,0,0,0.057215644202977006,61.6784644508092,0)" xlink:href="#aM"/><use transform="matrix(0.057215644202977006,0,0,0.057215644202977006,73.12159329140461,0)" xlink:href="#aG"/><use transform="matrix(0.057215644202977006,0,0,0.057215644202977006,79.93025495155887,0)" xlink:href="#aN"/><use transform="matrix(0.057215644202977006,0,0,0.057215644202977006,85.65181937185656,0)" xlink:href="#ax"/><use transform="matrix(0.057215644202977006,0,0,0.057215644202977006,98.18204545230853,0)" xlink:href="#aC"/><use transform="matrix(0.057215644202977006,0,0,0.057215644202977006,110.7122715327605,0)" xlink:href="#aP"/><use transform="matrix(0.057215644202977006,0,0,0.057215644202977006,116.43383595305819,0)" xlink:href="#aD"/></g><path fill="#fff" d="M114-157C55-157 80-60 75 0H25v-261h50l-1 109c12-26 28-41 61-42 86-1 58 113 63 194h-50c-7-57 23-157-34-157" id="aQ"/><path fill="#fff" d="M24-248c93 1 206-16 204 79-1 75-69 88-152 82V0H24v-248zm52 121c47 0 100 7 100-41 0-47-54-39-100-39v80" id="aR"/><g id="p"><use transform="matrix(0.057215644202977006,0,0,0.057215644202977006,0,0)" xlink:href="#aQ"/><use transform="matrix(0.057215644202977006,0,0,0.057215644202977006,12.530226080451964,0)" xlink:href="#au"/><use transform="matrix(0.057215644202977006,0,0,0.057215644202977006,23.973354921047367,0)" xlink:href="#aB"/><use transform="matrix(0.057215644202977006,0,0,0.057215644202977006,35.416483761642766,0)" xlink:href="#aQ"/><use transform="matrix(0.057215644202977006,0,0,0.057215644202977006,47.946709842094734,0)" xlink:href="#aR"/><use transform="matrix(0.057215644202977006,0,0,0.057215644202977006,61.678464450809216,0)" xlink:href="#au"/><use transform="matrix(0.057215644202977006,0,0,0.057215644202977006,73.12159329140462,0)" xlink:href="#aN"/><use transform="matrix(0.057215644202977006,0,0,0.057215644202977006,78.84315771170232,0)" xlink:href="#aw"/><use transform="matrix(0.057215644202977006,0,0,0.057215644202977006,85.70903501605956,0)" xlink:href="#aH"/><use transform="matrix(0.057215644202977006,0,0,0.057215644202977006,91.43059943635726,0)" xlink:href="#aB"/><use transform="matrix(0.057215644202977006,0,0,0.057215644202977006,102.87372827695266,0)" xlink:href="#az"/><use transform="matrix(0.057215644202977006,0,0,0.057215644202977006,114.31685711754807,0)" xlink:href="#aM"/><use transform="matrix(0.057215644202977006,0,0,0.057215644202977006,125.75998595814349,0)" xlink:href="#aw"/><use transform="matrix(0.057215644202977006,0,0,0.057215644202977006,133.77017614656026,0)" xlink:href="#az"/><use transform="matrix(0.057215644202977006,0,0,0.057215644202977006,145.21330498715565,0)" xlink:href="#aG"/></g><g id="q"><use transform="matrix(0.057215644202977006,0,0,0.057215644202977006,0,0)" xlink:href="#aJ"/><use transform="matrix(0.057215644202977006,0,0,0.057215644202977006,12.530226080451964,0)" xlink:href="#av"/><use transform="matrix(0.057215644202977006,0,0,0.057215644202977006,25.060452160903928,0)" xlink:href="#aD"/><use transform="matrix(0.057215644202977006,0,0,0.057215644202977006,37.59067824135589,0)" xlink:href="#au"/><use transform="matrix(0.057215644202977006,0,0,0.057215644202977006,49.03380708195129,0)" xlink:href="#aG"/><use transform="matrix(0.057215644202977006,0,0,0.057215644202977006,55.84246874210555,0)" xlink:href="#az"/></g><g id="r"><use transform="matrix(0.057215644202977006,0,0,0.057215644202977006,0,0)" xlink:href="#aw"/><use transform="matrix(0.057215644202977006,0,0,0.057215644202977006,8.01019018841678,0)" xlink:href="#az"/><use transform="matrix(0.057215644202977006,0,0,0.057215644202977006,19.45331902901218,0)" xlink:href="#aM"/><use transform="matrix(0.057215644202977006,0,0,0.057215644202977006,30.896447869607584,0)" xlink:href="#aN"/><use transform="matrix(0.057215644202977006,0,0,0.057215644202977006,36.61801228990529,0)" xlink:href="#av"/><use transform="matrix(0.057215644202977006,0,0,0.057215644202977006,49.14823837035725,0)" xlink:href="#aN"/><use transform="matrix(0.057215644202977006,0,0,0.057215644202977006,54.86980279065495,0)" xlink:href="#az"/><use transform="matrix(0.057215644202977006,0,0,0.057215644202977006,66.31293163125035,0)" xlink:href="#aC"/><use transform="matrix(0.057215644202977006,0,0,0.057215644202977006,78.84315771170232,0)" xlink:href="#aG"/><use transform="matrix(0.057215644202977006,0,0,0.057215644202977006,85.65181937185658,0)" xlink:href="#aE"/><use transform="matrix(0.057215644202977006,0,0,0.057215644202977006,100.47067122042762,0)" xlink:href="#aF"/><use transform="matrix(0.057215644202977006,0,0,0.057215644202977006,113.00089730087959,0)" xlink:href="#az"/><use transform="matrix(0.057215644202977006,0,0,0.057215644202977006,124.44402614147499,0)" xlink:href="#aC"/><use transform="matrix(0.057215644202977006,0,0,0.057215644202977006,136.97425222192695,0)" xlink:href="#aG"/><use transform="matrix(0.057215644202977006,0,0,0.057215644202977006,143.7829138820812,0)" xlink:href="#aH"/><use transform="matrix(0.057215644202977006,0,0,0.057215644202977006,149.5044783023789,0)" xlink:href="#au"/><use transform="matrix(0.057215644202977006,0,0,0.057215644202977006,160.9476071429743,0)" xlink:href="#aD"/><use transform="matrix(0.057215644202977006,0,0,0.057215644202977006,173.47783322342627,0)" xlink:href="#aD"/><use transform="matrix(0.057215644202977006,0,0,0.057215644202977006,186.00805930387824,0)" xlink:href="#aw"/><use transform="matrix(0.057215644202977006,0,0,0.057215644202977006,194.018249492295,0)" xlink:href="#az"/><use transform="matrix(0.057215644202977006,0,0,0.057215644202977006,205.4613783328904,0)" xlink:href="#aB"/><use transform="matrix(0.057215644202977006,0,0,0.057215644202977006,216.9045071734858,0)" xlink:href="#aB"/></g><g id="s"><use transform="matrix(0.057215644202977006,0,0,0.057215644202977006,0,0)" xlink:href="#aQ"/><use transform="matrix(0.057215644202977006,0,0,0.057215644202977006,12.530226080451964,0)" xlink:href="#au"/><use transform="matrix(0.057215644202977006,0,0,0.057215644202977006,23.973354921047367,0)" xlink:href="#aB"/><use transform="matrix(0.057215644202977006,0,0,0.057215644202977006,35.416483761642766,0)" xlink:href="#aQ"/><use transform="matrix(0.057215644202977006,0,0,0.057215644202977006,47.946709842094734,0)" xlink:href="#av"/><use transform="matrix(0.057215644202977006,0,0,0.057215644202977006,60.476935922546694,0)" xlink:href="#au"/><use transform="matrix(0.057215644202977006,0,0,0.057215644202977006,71.92006476314211,0)" xlink:href="#aN"/><use transform="matrix(0.057215644202977006,0,0,0.057215644202977006,77.6416291834398,0)" xlink:href="#aw"/><use transform="matrix(0.057215644202977006,0,0,0.057215644202977006,84.50750648779704,0)" xlink:href="#aH"/><use transform="matrix(0.057215644202977006,0,0,0.057215644202977006,90.22907090809474,0)" xlink:href="#aB"/><use transform="matrix(0.057215644202977006,0,0,0.057215644202977006,101.67219974869015,0)" xlink:href="#az"/><use transform="matrix(0.057215644202977006,0,0,0.057215644202977006,113.11532858928555,0)" xlink:href="#aM"/><use transform="matrix(0.057215644202977006,0,0,0.057215644202977006,124.55845742988097,0)" xlink:href="#aw"/><use transform="matrix(0.057215644202977006,0,0,0.057215644202977006,132.56864761829775,0)" xlink:href="#az"/><use transform="matrix(0.057215644202977006,0,0,0.057215644202977006,144.01177645889314,0)" xlink:href="#aG"/></g><path fill="#333" d="M169-182c-1-43-94-46-97-3 18 66 151 10 154 114 3 95-165 93-204 36-6-8-10-19-12-30l50-8c3 46 112 56 116 5-17-69-150-10-154-114-4-87 153-88 188-35 5 8 8 18 10 28" id="aS"/><path fill="#333" d="M185-48c-13 30-37 53-82 52C43 2 14-33 14-96s30-98 90-98c62 0 83 45 84 108H66c0 31 8 55 39 56 18 0 30-7 34-22zm-45-69c5-46-57-63-70-21-2 6-4 13-4 21h74" id="aT"/><path fill="#333" d="M135-194c87-1 58 113 63 194h-50c-7-57 23-157-34-157-59 0-34 97-39 157H25l-1-190h47c2 12-1 28 3 38 12-26 28-41 61-42" id="aU"/><path fill="#333" d="M88-194c31-1 46 15 58 34l-1-101h50l1 261h-48c-2-10 0-23-3-31C134-8 116 4 84 4 32 4 16-41 15-95c0-56 19-97 73-99zm17 164c33 0 40-30 41-66 1-37-9-64-41-64s-38 30-39 65c0 43 13 65 39 65" id="aV"/><path fill="#333" d="M135-150c-39-12-60 13-60 57V0H25l-1-190h47c2 13-1 29 3 40 6-28 27-53 61-41v41" id="aW"/><g id="t"><use transform="matrix(0.056172839506172835,0,0,0.056172839506172835,0,0)" xlink:href="#aS"/><use transform="matrix(0.056172839506172835,0,0,0.056172839506172835,13.481481481481481,0)" xlink:href="#aT"/><use transform="matrix(0.056172839506172835,0,0,0.056172839506172835,24.716049382716047,0)" xlink:href="#aU"/><use transform="matrix(0.056172839506172835,0,0,0.056172839506172835,37.0179012345679,0)" xlink:href="#aV"/><use transform="matrix(0.056172839506172835,0,0,0.056172839506172835,49.31975308641975,0)" xlink:href="#aT"/><use transform="matrix(0.056172839506172835,0,0,0.056172839506172835,60.554320987654314,0)" xlink:href="#aW"/></g><path fill="#333" d="M25-224v-37h50v37H25zM25 0v-190h50V0H25" id="aX"/><path fill="#333" d="M115-3C79 11 28 4 28-45v-112H4v-33h27l15-45h31v45h36v33H77v99c-1 23 16 31 38 25v30" id="aY"/><path fill="#333" d="M133-34C117-15 103 5 69 4 32 3 11-16 11-54c-1-60 55-63 116-61 1-26-3-47-28-47-18 1-26 9-28 27l-52-2c7-38 36-58 82-57s74 22 75 68l1 82c-1 14 12 18 25 15v27c-30 8-71 5-69-32zm-48 3c29 0 43-24 42-57-32 0-66-3-65 30 0 17 8 27 23 27" id="aZ"/><path fill="#333" d="M137-138c1-29-70-34-71-4 15 46 118 7 119 86 1 83-164 76-172 9l43-7c4 19 20 25 44 25 33 8 57-30 24-41C81-84 22-81 20-136c-2-80 154-74 161-7" id="ba"/><g id="u"><use transform="matrix(0.056172839506172835,0,0,0.056172839506172835,0,0)" xlink:href="#aX"/><use transform="matrix(0.056172839506172835,0,0,0.056172839506172835,5.617283950617283,0)" xlink:href="#aU"/><use transform="matrix(0.056172839506172835,0,0,0.056172839506172835,17.919135802469135,0)" xlink:href="#aX"/><use transform="matrix(0.056172839506172835,0,0,0.056172839506172835,23.53641975308642,0)" xlink:href="#aY"/><use transform="matrix(0.056172839506172835,0,0,0.056172839506172835,30.220987654320986,0)" xlink:href="#aX"/><use transform="matrix(0.056172839506172835,0,0,0.056172839506172835,35.83827160493827,0)" xlink:href="#aZ"/><use transform="matrix(0.056172839506172835,0,0,0.056172839506172835,47.07283950617284,0)" xlink:href="#aY"/><use transform="matrix(0.056172839506172835,0,0,0.056172839506172835,53.757407407407406,0)" xlink:href="#aT"/><use transform="matrix(0.056172839506172835,0,0,0.056172839506172835,64.99197530864197,0)" xlink:href="#ba"/></g><path fill="#333" d="M121-226c-27-7-43 5-38 36h38v33H83V0H34v-157H6v-33h28c-9-59 32-81 87-68v32" id="bb"/><g id="v"><use transform="matrix(0.056172839506172835,0,0,0.056172839506172835,0,0)" xlink:href="#aY"/><use transform="matrix(0.056172839506172835,0,0,0.056172839506172835,6.684567901234567,0)" xlink:href="#aW"/><use transform="matrix(0.056172839506172835,0,0,0.056172839506172835,14.548765432098763,0)" xlink:href="#aZ"/><use transform="matrix(0.056172839506172835,0,0,0.056172839506172835,25.78333333333333,0)" xlink:href="#aU"/><use transform="matrix(0.056172839506172835,0,0,0.056172839506172835,38.08518518518518,0)" xlink:href="#ba"/><use transform="matrix(0.056172839506172835,0,0,0.056172839506172835,49.31975308641975,0)" xlink:href="#bb"/><use transform="matrix(0.056172839506172835,0,0,0.056172839506172835,56.00432098765432,0)" xlink:href="#aT"/><use transform="matrix(0.056172839506172835,0,0,0.056172839506172835,67.23888888888888,0)" xlink:href="#aW"/></g><path fill="#333" d="M240-174c0 40-23 61-54 70L253 0h-59l-57-94H76V0H24v-248c93 4 217-23 216 74zM76-134c48-2 112 12 112-38 0-48-66-32-112-35v73" id="bc"/><path fill="#333" d="M190-63c-7 42-38 67-86 67-59 0-84-38-90-98-12-110 154-137 174-36l-49 2c-2-19-15-32-35-32-30 0-35 28-38 64-6 74 65 87 74 30" id="bd"/><path fill="#333" d="M135-194c53 0 70 44 70 98 0 56-19 98-73 100-31 1-45-17-59-34 3 33 2 69 2 105H25l-1-265h48c2 10 0 23 3 31 11-24 29-35 60-35zM114-30c33 0 39-31 40-66 0-38-9-64-40-64-56 0-55 130 0 130" id="be"/><g id="w"><use transform="matrix(0.056172839506172835,0,0,0.056172839506172835,0,0)" xlink:href="#bc"/><use transform="matrix(0.056172839506172835,0,0,0.056172839506172835,14.548765432098763,0)" xlink:href="#aT"/><use transform="matrix(0.056172839506172835,0,0,0.056172839506172835,25.78333333333333,0)" xlink:href="#bd"/><use transform="matrix(0.056172839506172835,0,0,0.056172839506172835,37.0179012345679,0)" xlink:href="#aX"/><use transform="matrix(0.056172839506172835,0,0,0.056172839506172835,42.635185185185186,0)" xlink:href="#be"/><use transform="matrix(0.056172839506172835,0,0,0.056172839506172835,54.93703703703704,0)" xlink:href="#aX"/><use transform="matrix(0.056172839506172835,0,0,0.056172839506172835,60.554320987654314,0)" xlink:href="#aT"/><use transform="matrix(0.056172839506172835,0,0,0.056172839506172835,71.78888888888889,0)" xlink:href="#aU"/><use transform="matrix(0.056172839506172835,0,0,0.056172839506172835,84.09074074074074,0)" xlink:href="#aY"/></g><path fill="#333" d="M25 0v-261h50V0H25" id="bf"/><path fill="#333" d="M220-157c-53 9-28 100-34 157h-49v-107c1-27-5-49-29-50C55-147 81-57 75 0H25l-1-190h47c2 12-1 28 3 38 10-53 101-56 108 0 13-22 24-43 59-42 82 1 51 116 57 194h-49v-107c-1-25-5-48-29-50" id="bg"/><g id="x"><use transform="matrix(0.056172839506172835,0,0,0.056172839506172835,0,0)" xlink:href="#bd"/><use transform="matrix(0.056172839506172835,0,0,0.056172839506172835,11.234567901234566,0)" xlink:href="#bf"/><use transform="matrix(0.056172839506172835,0,0,0.056172839506172835,16.851851851851848,0)" xlink:href="#aZ"/><use transform="matrix(0.056172839506172835,0,0,0.056172839506172835,28.086419753086414,0)" xlink:href="#aX"/><use transform="matrix(0.056172839506172835,0,0,0.056172839506172835,33.703703703703695,0)" xlink:href="#bg"/><use transform="matrix(0.056172839506172835,0,0,0.056172839506172835,51.679012345679,0)" xlink:href="#ba"/></g><g id="y"><use transform="matrix(0.056172839506172835,0,0,0.056172839506172835,0,0)" xlink:href="#aY"/><use transform="matrix(0.056172839506172835,0,0,0.056172839506172835,6.684567901234567,0)" xlink:href="#aW"/><use transform="matrix(0.056172839506172835,0,0,0.056172839506172835,14.548765432098763,0)" xlink:href="#aZ"/><use transform="matrix(0.056172839506172835,0,0,0.056172839506172835,25.78333333333333,0)" xlink:href="#aU"/><use transform="matrix(0.056172839506172835,0,0,0.056172839506172835,38.08518518518518,0)" xlink:href="#ba"/><use transform="matrix(0.056172839506172835,0,0,0.056172839506172835,49.31975308641975,0)" xlink:href="#bb"/><use transform="matrix(0.056172839506172835,0,0,0.056172839506172835,56.00432098765432,0)" xlink:href="#aT"/><use transform="matrix(0.056172839506172835,0,0,0.056172839506172835,67.23888888888888,0)" xlink:href="#aW"/></g><path fill="#fff" d="M144 0l-44-69L55 0H2l70-98-66-92h53l41 62 40-62h54l-67 91 71 99h-54" id="bh"/><g id="z"><use transform="matrix(0.057215644202977006,0,0,0.057215644202977006,0,0)" xlink:href="#az"/><use transform="matrix(0.057215644202977006,0,0,0.057215644202977006,11.443128840595401,0)" xlink:href="#bh"/><use transform="matrix(0.057215644202977006,0,0,0.057215644202977006,22.886257681190802,0)" xlink:href="#aN"/><use transform="matrix(0.057215644202977006,0,0,0.057215644202977006,28.6078221014885,0)" xlink:href="#aG"/><use transform="matrix(0.057215644202977006,0,0,0.057215644202977006,35.416483761642766,0)" xlink:href="#aL"/><use transform="matrix(0.057215644202977006,0,0,0.057215644202977006,46.80239695803519,0)" xlink:href="#aw"/><use transform="matrix(0.057215644202977006,0,0,0.057215644202977006,54.81258714645197,0)" xlink:href="#au"/><use transform="matrix(0.057215644202977006,0,0,0.057215644202977006,66.25571598704737,0)" xlink:href="#aC"/><use transform="matrix(0.057215644202977006,0,0,0.057215644202977006,78.78594206749933,0)" xlink:href="#aB"/><use transform="matrix(0.057215644202977006,0,0,0.057215644202977006,90.22907090809474,0)" xlink:href="#au"/><use transform="matrix(0.057215644202977006,0,0,0.057215644202977006,101.67219974869015,0)" xlink:href="#aM"/><use transform="matrix(0.057215644202977006,0,0,0.057215644202977006,113.11532858928555,0)" xlink:href="#aG"/><use transform="matrix(0.057215644202977006,0,0,0.057215644202977006,119.92399024943981,0)" xlink:href="#aN"/><use transform="matrix(0.057215644202977006,0,0,0.057215644202977006,125.6455546697375,0)" xlink:href="#ax"/><use transform="matrix(0.057215644202977006,0,0,0.057215644202977006,138.17578075018946,0)" xlink:href="#aC"/></g><path fill="#fff" d="M135-194c52 0 70 43 70 98 0 56-19 99-73 100-30 1-46-15-58-35L72 0H24l1-261h50v104c11-23 29-37 60-37zM114-30c31 0 40-27 40-66 0-37-7-63-39-63s-41 28-41 65c0 36 8 64 40 64" id="bi"/><g id="A"><use transform="matrix(0.057215644202977006,0,0,0.057215644202977006,0,0)" xlink:href="#bi"/><use transform="matrix(0.057215644202977006,0,0,0.057215644202977006,12.530226080451964,0)" xlink:href="#aJ"/><use transform="matrix(0.057215644202977006,0,0,0.057215644202977006,25.060452160903928,0)" xlink:href="#aw"/><use transform="matrix(0.057215644202977006,0,0,0.057215644202977006,33.07064234932071,0)" xlink:href="#aC"/><use transform="matrix(0.057215644202977006,0,0,0.057215644202977006,45.600868429772675,0)" xlink:href="#aE"/><use transform="matrix(0.057215644202977006,0,0,0.057215644202977006,60.41972027834372,0)" xlink:href="#aM"/><use transform="matrix(0.057215644202977006,0,0,0.057215644202977006,71.86284911893912,0)" xlink:href="#aM"/><use transform="matrix(0.057215644202977006,0,0,0.057215644202977006,83.30597795953453,0)" xlink:href="#ax"/><use transform="matrix(0.057215644202977006,0,0,0.057215644202977006,95.8362040399865,0)" xlink:href="#aJ"/><use transform="matrix(0.057215644202977006,0,0,0.057215644202977006,108.36643012043847,0)" xlink:href="#aC"/><use transform="matrix(0.057215644202977006,0,0,0.057215644202977006,120.89665620089043,0)" xlink:href="#aG"/><use transform="matrix(0.057215644202977006,0,0,0.057215644202977006,127.70531786104468,0)" xlink:href="#aH"/><use transform="matrix(0.057215644202977006,0,0,0.057215644202977006,133.4268822813424,0)" xlink:href="#au"/><use transform="matrix(0.057215644202977006,0,0,0.057215644202977006,144.87001112193778,0)" xlink:href="#aD"/><use transform="matrix(0.057215644202977006,0,0,0.057215644202977006,157.40023720238975,0)" xlink:href="#aD"/><use transform="matrix(0.057215644202977006,0,0,0.057215644202977006,169.9304632828417,0)" xlink:href="#aw"/><use transform="matrix(0.057215644202977006,0,0,0.057215644202977006,177.94065347125849,0)" xlink:href="#az"/><use transform="matrix(0.057215644202977006,0,0,0.057215644202977006,189.38378231185388,0)" xlink:href="#aB"/><use transform="matrix(0.057215644202977006,0,0,0.057215644202977006,200.82691115244927,0)" xlink:href="#aB"/></g><g id="B"><use transform="matrix(0.057215644202977006,0,0,0.057215644202977006,0,0)" xlink:href="#aQ"/><use transform="matrix(0.057215644202977006,0,0,0.057215644202977006,12.530226080451964,0)" xlink:href="#au"/><use transform="matrix(0.057215644202977006,0,0,0.057215644202977006,23.973354921047367,0)" xlink:href="#aB"/><use transform="matrix(0.057215644202977006,0,0,0.057215644202977006,35.416483761642766,0)" xlink:href="#aQ"/><use transform="matrix(0.057215644202977006,0,0,0.057215644202977006,47.946709842094734,0)" xlink:href="#aR"/><use transform="matrix(0.057215644202977006,0,0,0.057215644202977006,61.678464450809216,0)" xlink:href="#au"/><use transform="matrix(0.057215644202977006,0,0,0.057215644202977006,73.12159329140462,0)" xlink:href="#aN"/><use transform="matrix(0.057215644202977006,0,0,0.057215644202977006,78.84315771170232,0)" xlink:href="#aw"/><use transform="matrix(0.057215644202977006,0,0,0.057215644202977006,85.70903501605956,0)" xlink:href="#aH"/><use transform="matrix(0.057215644202977006,0,0,0.057215644202977006,91.43059943635726,0)" xlink:href="#aQ"/><use transform="matrix(0.057215644202977006,0,0,0.057215644202977006,103.96082551680922,0)" xlink:href="#au"/><use transform="matrix(0.057215644202977006,0,0,0.057215644202977006,115.40395435740463,0)" xlink:href="#aB"/><use transform="matrix(0.057215644202977006,0,0,0.057215644202977006,126.84708319800002,0)" xlink:href="#aQ"/></g><path fill="#fff" d="M24 0v-248h195v40H76v63h132v40H76v65h150V0H24" id="bj"/><path fill="#fff" d="M169-182c-1-43-94-46-97-3 18 66 151 10 154 114 3 95-165 93-204 36-6-8-10-19-12-30l50-8c3 46 112 56 116 5-17-69-150-10-154-114-4-87 153-88 188-35 5 8 8 18 10 28" id="bk"/><g id="C"><use transform="matrix(0.057215644202977006,0,0,0.057215644202977006,0,0)" xlink:href="#av"/><use transform="matrix(0.057215644202977006,0,0,0.057215644202977006,12.530226080451964,0)" xlink:href="#az"/><use transform="matrix(0.057215644202977006,0,0,0.057215644202977006,23.973354921047367,0)" xlink:href="#aw"/><use transform="matrix(0.057215644202977006,0,0,0.057215644202977006,31.983545109464146,0)" xlink:href="#aN"/><use transform="matrix(0.057215644202977006,0,0,0.057215644202977006,37.70510952976185,0)" xlink:href="#ax"/><use transform="matrix(0.057215644202977006,0,0,0.057215644202977006,50.23533561021381,0)" xlink:href="#aD"/><use transform="matrix(0.057215644202977006,0,0,0.057215644202977006,62.76556169066578,0)" xlink:href="#bj"/><use transform="matrix(0.057215644202977006,0,0,0.057215644202977006,76.49731629938026,0)" xlink:href="#aC"/><use transform="matrix(0.057215644202977006,0,0,0.057215644202977006,89.02754237983223,0)" xlink:href="#aD"/><use transform="matrix(0.057215644202977006,0,0,0.057215644202977006,101.5577684602842,0)" xlink:href="#bk"/><use transform="matrix(0.057215644202977006,0,0,0.057215644202977006,115.28952306899868,0)" xlink:href="#az"/><use transform="matrix(0.057215644202977006,0,0,0.057215644202977006,126.7326519095941,0)" xlink:href="#aM"/><use transform="matrix(0.057215644202977006,0,0,0.057215644202977006,138.1757807501895,0)" xlink:href="#ax"/><use transform="matrix(0.057215644202977006,0,0,0.057215644202977006,150.70600683064146,0)" xlink:href="#aC"/><use transform="matrix(0.057215644202977006,0,0,0.057215644202977006,163.23623291109342,0)" xlink:href="#aD"/><use transform="matrix(0.057215644202977006,0,0,0.057215644202977006,175.7664589915454,0)" xlink:href="#aB"/></g><g id="D"><use transform="matrix(0.057215644202977006,0,0,0.057215644202977006,0,0)" xlink:href="#aB"/><use transform="matrix(0.057215644202977006,0,0,0.057215644202977006,11.443128840595401,0)" xlink:href="#az"/><use transform="matrix(0.057215644202977006,0,0,0.057215644202977006,22.886257681190802,0)" xlink:href="#aC"/><use transform="matrix(0.057215644202977006,0,0,0.057215644202977006,35.416483761642766,0)" xlink:href="#aD"/><use transform="matrix(0.057215644202977006,0,0,0.057215644202977006,47.946709842094734,0)" xlink:href="#az"/><use transform="matrix(0.057215644202977006,0,0,0.057215644202977006,59.38983868269013,0)" xlink:href="#aw"/><use transform="matrix(0.057215644202977006,0,0,0.057215644202977006,67.40002887110691,0)" xlink:href="#aL"/><use transform="matrix(0.057215644202977006,0,0,0.057215644202977006,78.3854325580785,0)" xlink:href="#ax"/><use transform="matrix(0.057215644202977006,0,0,0.057215644202977006,90.91565863853047,0)" xlink:href="#aO"/><use transform="matrix(0.057215644202977006,0,0,0.057215644202977006,102.35878747912588,0)" xlink:href="#az"/><use transform="matrix(0.057215644202977006,0,0,0.057215644202977006,113.80191631972129,0)" xlink:href="#aC"/><use transform="matrix(0.057215644202977006,0,0,0.057215644202977006,126.33214240017325,0)" xlink:href="#aH"/><use transform="matrix(0.057215644202977006,0,0,0.057215644202977006,132.05370682047095,0)" xlink:href="#au"/><use transform="matrix(0.057215644202977006,0,0,0.057215644202977006,143.49683566106634,0)" xlink:href="#aD"/><use transform="matrix(0.057215644202977006,0,0,0.057215644202977006,156.0270617415183,0)" xlink:href="#aD"/><use transform="matrix(0.057215644202977006,0,0,0.057215644202977006,168.55728782197028,0)" xlink:href="#aw"/><use transform="matrix(0.057215644202977006,0,0,0.057215644202977006,176.56747801038705,0)" xlink:href="#az"/><use transform="matrix(0.057215644202977006,0,0,0.057215644202977006,188.01060685098244,0)" xlink:href="#aB"/><use transform="matrix(0.057215644202977006,0,0,0.057215644202977006,199.45373569157783,0)" xlink:href="#aB"/></g><g id="E"><use transform="matrix(0.057215644202977006,0,0,0.057215644202977006,0,0)" xlink:href="#aG"/><use transform="matrix(0.057215644202977006,0,0,0.057215644202977006,6.8086616601542636,0)" xlink:href="#ax"/><use transform="matrix(0.057215644202977006,0,0,0.057215644202977006,19.33888774060623,0)" xlink:href="#aO"/><use transform="matrix(0.057215644202977006,0,0,0.057215644202977006,30.782016581201628,0)" xlink:href="#az"/><use transform="matrix(0.057215644202977006,0,0,0.057215644202977006,42.22514542179703,0)" xlink:href="#aC"/><use transform="matrix(0.057215644202977006,0,0,0.057215644202977006,54.75537150224899,0)" xlink:href="#aE"/><use transform="matrix(0.057215644202977006,0,0,0.057215644202977006,69.57422335082003,0)" xlink:href="#aI"/><use transform="matrix(0.057215644202977006,0,0,0.057215644202977006,87.88322949577267,0)" xlink:href="#ax"/><use transform="matrix(0.057215644202977006,0,0,0.057215644202977006,100.41345557622464,0)" xlink:href="#aJ"/><use transform="matrix(0.057215644202977006,0,0,0.057215644202977006,112.9436816566766,0)" xlink:href="#aC"/><use transform="matrix(0.057215644202977006,0,0,0.057215644202977006,125.47390773712857,0)" xlink:href="#aG"/></g><path fill="#fff" d="M175 0L67-191c6 58 2 128 3 191H24v-248h59L193-55c-6-58-2-129-3-193h46V0h-61" id="bl"/><path fill="#fff" d="M231 0h-52l-39-155L100 0H48L-1-190h46L77-45c9-52 24-97 36-145h53l37 145 32-145h46" id="bm"/><path fill="#fff" d="M186 0v-106H76V0H24v-248h52v99h110v-99h50V0h-50" id="bn"/><g id="F"><use transform="matrix(0.056172839506172835,0,0,0.056172839506172835,0,0)" xlink:href="#aM"/><use transform="matrix(0.056172839506172835,0,0,0.056172839506172835,11.234567901234566,0)" xlink:href="#aw"/><use transform="matrix(0.056172839506172835,0,0,0.056172839506172835,19.098765432098762,0)" xlink:href="#az"/><use transform="matrix(0.056172839506172835,0,0,0.056172839506172835,30.333333333333332,0)" xlink:href="#au"/><use transform="matrix(0.056172839506172835,0,0,0.056172839506172835,41.5679012345679,0)" xlink:href="#aG"/><use transform="matrix(0.056172839506172835,0,0,0.056172839506172835,48.252469135802464,0)" xlink:href="#az"/><use transform="matrix(0.056172839506172835,0,0,0.056172839506172835,59.487037037037034,0)" xlink:href="#bl"/><use transform="matrix(0.056172839506172835,0,0,0.056172839506172835,74.03580246913579,0)" xlink:href="#az"/><use transform="matrix(0.056172839506172835,0,0,0.056172839506172835,85.27037037037036,0)" xlink:href="#bm"/><use transform="matrix(0.056172839506172835,0,0,0.056172839506172835,100.99876543209875,0)" xlink:href="#bn"/><use transform="matrix(0.056172839506172835,0,0,0.056172839506172835,115.54753086419753,0)" xlink:href="#au"/><use transform="matrix(0.056172839506172835,0,0,0.056172839506172835,126.78209876543208,0)" xlink:href="#aB"/><use transform="matrix(0.056172839506172835,0,0,0.056172839506172835,138.01666666666665,0)" xlink:href="#aQ"/><use transform="matrix(0.056172839506172835,0,0,0.056172839506172835,150.3185185185185,0)" xlink:href="#aR"/><use transform="matrix(0.056172839506172835,0,0,0.056172839506172835,163.79999999999995,0)" xlink:href="#au"/><use transform="matrix(0.056172839506172835,0,0,0.056172839506172835,175.0345679012345,0)" xlink:href="#aN"/><use transform="matrix(0.056172839506172835,0,0,0.056172839506172835,180.6518518518518,0)" xlink:href="#aw"/></g><use transform="matrix(0.056172839506172835,0,0,0.056172839506172835,0,0)" xlink:href="#aA" id="G"/><path fill="#fff" d="M182-130c37 4 62 22 62 59C244 23 116-4 24 0v-248c84 5 203-23 205 63 0 31-19 50-47 55zM76-148c40-3 101 13 101-30 0-44-60-28-101-31v61zm0 110c48-3 116 14 116-37 0-48-69-32-116-35v72" id="bo"/><g id="H"><use transform="matrix(0.056172839506172835,0,0,0.056172839506172835,0,0)" xlink:href="#aF"/><use transform="matrix(0.056172839506172835,0,0,0.056172839506172835,12.30185185185185,0)" xlink:href="#az"/><use transform="matrix(0.056172839506172835,0,0,0.056172839506172835,23.536419753086417,0)" xlink:href="#aC"/><use transform="matrix(0.056172839506172835,0,0,0.056172839506172835,35.83827160493827,0)" xlink:href="#az"/><use transform="matrix(0.056172839506172835,0,0,0.056172839506172835,47.07283950617284,0)" xlink:href="#aw"/><use transform="matrix(0.056172839506172835,0,0,0.056172839506172835,54.93703703703704,0)" xlink:href="#au"/><use transform="matrix(0.056172839506172835,0,0,0.056172839506172835,66.1716049382716,0)" xlink:href="#aG"/><use transform="matrix(0.056172839506172835,0,0,0.056172839506172835,72.85617283950617,0)" xlink:href="#az"/><use transform="matrix(0.056172839506172835,0,0,0.056172839506172835,84.09074074074074,0)" xlink:href="#bo"/><use transform="matrix(0.056172839506172835,0,0,0.056172839506172835,98.6395061728395,0)" xlink:href="#aJ"/><use transform="matrix(0.056172839506172835,0,0,0.056172839506172835,110.94135802469135,0)" xlink:href="#aw"/><use transform="matrix(0.056172839506172835,0,0,0.056172839506172835,118.80555555555554,0)" xlink:href="#aC"/><use transform="matrix(0.056172839506172835,0,0,0.056172839506172835,131.1074074074074,0)" xlink:href="#aE"/><use transform="matrix(0.056172839506172835,0,0,0.056172839506172835,145.65617283950618,0)" xlink:href="#aM"/><use transform="matrix(0.056172839506172835,0,0,0.056172839506172835,156.89074074074074,0)" xlink:href="#aM"/><use transform="matrix(0.056172839506172835,0,0,0.056172839506172835,168.1253086419753,0)" xlink:href="#ax"/><use transform="matrix(0.056172839506172835,0,0,0.056172839506172835,180.42716049382716,0)" xlink:href="#aJ"/><use transform="matrix(0.056172839506172835,0,0,0.056172839506172835,192.729012345679,0)" xlink:href="#aC"/><use transform="matrix(0.056172839506172835,0,0,0.056172839506172835,205.03086419753083,0)" xlink:href="#aG"/></g><path fill="#fff" d="M230 0l2-204L168 0h-37L68-204 70 0H24v-248h70l56 185 57-185h69V0h-46" id="bp"/><g id="I"><use transform="matrix(0.056172839506172835,0,0,0.056172839506172835,0,0)" xlink:href="#az"/><use transform="matrix(0.056172839506172835,0,0,0.056172839506172835,11.234567901234566,0)" xlink:href="#bh"/><use transform="matrix(0.056172839506172835,0,0,0.056172839506172835,22.469135802469133,0)" xlink:href="#av"/><use transform="matrix(0.056172839506172835,0,0,0.056172839506172835,34.77098765432098,0)" xlink:href="#aN"/><use transform="matrix(0.056172839506172835,0,0,0.056172839506172835,40.38827160493827,0)" xlink:href="#aw"/><use transform="matrix(0.056172839506172835,0,0,0.056172839506172835,48.252469135802464,0)" xlink:href="#az"/><use transform="matrix(0.056172839506172835,0,0,0.056172839506172835,59.487037037037034,0)" xlink:href="#aD"/><use transform="matrix(0.056172839506172835,0,0,0.056172839506172835,71.78888888888888,0)" xlink:href="#aL"/><use transform="matrix(0.056172839506172835,0,0,0.056172839506172835,84.09074074074073,0)" xlink:href="#bh"/><use transform="matrix(0.056172839506172835,0,0,0.056172839506172835,95.3253086419753,0)" xlink:href="#bp"/><use transform="matrix(0.056172839506172835,0,0,0.056172839506172835,112.12098765432097,0)" xlink:href="#ax"/><use transform="matrix(0.056172839506172835,0,0,0.056172839506172835,124.42283950617283,0)" xlink:href="#aC"/><use transform="matrix(0.056172839506172835,0,0,0.056172839506172835,136.72469135802467,0)" xlink:href="#aN"/><use transform="matrix(0.056172839506172835,0,0,0.056172839506172835,142.34197530864196,0)" xlink:href="#aG"/><use transform="matrix(0.056172839506172835,0,0,0.056172839506172835,149.02654320987654,0)" xlink:href="#ax"/><use transform="matrix(0.056172839506172835,0,0,0.056172839506172835,161.32839506172837,0)" xlink:href="#aw"/></g><use transform="matrix(0.056172839506172835,0,0,0.056172839506172835,0,0)" xlink:href="#aA" id="J"/><path fill="#333" d="M141 0L90-78 38 0H4l68-98-65-92h35l48 74 47-74h35l-64 92 68 98h-35" id="bq"/><g id="K"><use transform="matrix(0.05,0,0,0.05,0,0)" xlink:href="#ac"/><use transform="matrix(0.05,0,0,0.05,10,0)" xlink:href="#bq"/><use transform="matrix(0.05,0,0,0.05,19,0)" xlink:href="#ao"/><use transform="matrix(0.05,0,0,0.05,29,0)" xlink:href="#an"/><use transform="matrix(0.05,0,0,0.05,32.95,0)" xlink:href="#af"/><use transform="matrix(0.05,0,0,0.05,38.900000000000006,0)" xlink:href="#ac"/><use transform="matrix(0.05,0,0,0.05,48.900000000000006,0)" xlink:href="#ae"/></g><path fill="#333" d="M103-251c84 0 111 97 45 133-19 10-37 24-39 52H78c0-63 77-55 77-114 0-30-21-42-52-43-32 0-53 17-56 46l-32-2c7-45 34-72 88-72zM77 0v-35h34V0H77" id="br"/><g id="L"><use transform="matrix(0.05,0,0,0.05,0,0)" xlink:href="#ai"/><use transform="matrix(0.05,0,0,0.05,5,0)" xlink:href="#bq"/><use transform="matrix(0.05,0,0,0.05,14,0)" xlink:href="#br"/></g><g id="M"><use transform="matrix(0.05,0,0,0.05,0,0)" xlink:href="#aj"/><use transform="matrix(0.05,0,0,0.05,10.950000000000001,0)" xlink:href="#ar"/><use transform="matrix(0.05,0,0,0.05,20.950000000000003,0)" xlink:href="#an"/><use transform="matrix(0.05,0,0,0.05,24.900000000000002,0)" xlink:href="#ab"/></g><path fill="#333" d="M206 0h-36l-40-164L89 0H53L-1-190h32L70-26l43-164h34l41 164 42-164h31" id="bs"/><path fill="#333" d="M84 4C-5 8 30-112 23-190h32v120c0 31 7 50 39 49 72-2 45-101 50-169h31l1 190h-30c-1-10 1-25-2-33-11 22-28 36-60 37" id="bt"/><path fill="#333" d="M24 0v-261h32V0H24" id="bu"/><g id="N"><use transform="matrix(0.05,0,0,0.05,0,0)" xlink:href="#bs"/><use transform="matrix(0.05,0,0,0.05,12.950000000000001,0)" xlink:href="#ak"/><use transform="matrix(0.05,0,0,0.05,22.950000000000003,0)" xlink:href="#bt"/><use transform="matrix(0.05,0,0,0.05,32.95,0)" xlink:href="#bu"/><use transform="matrix(0.05,0,0,0.05,36.900000000000006,0)" xlink:href="#ae"/></g><g id="O"><use transform="matrix(0.05,0,0,0.05,0,0)" xlink:href="#ad"/><use transform="matrix(0.05,0,0,0.05,10,0)" xlink:href="#ac"/><use transform="matrix(0.05,0,0,0.05,20,0)" xlink:href="#ac"/><use transform="matrix(0.05,0,0,0.05,30,0)" xlink:href="#ae"/></g><g id="P"><use transform="matrix(0.05,0,0,0.05,0,0)" xlink:href="#ai"/><use transform="matrix(0.05,0,0,0.05,5,0)" xlink:href="#ak"/></g><path fill="#333" d="M115-194c53 0 69 39 70 98 0 66-23 100-70 100C84 3 66-7 56-30L54 0H23l1-261h32v101c10-23 28-34 59-34zm-8 174c40 0 45-34 45-75 0-40-5-75-45-74-42 0-51 32-51 76 0 43 10 73 51 73" id="bv"/><g id="Q"><use transform="matrix(0.05,0,0,0.05,0,0)" xlink:href="#bv"/><use transform="matrix(0.05,0,0,0.05,10,0)" xlink:href="#ac"/></g><use transform="matrix(0.05,0,0,0.05,0,0)" xlink:href="#as" id="R"/><path fill="#333" d="M179-190L93 31C79 59 56 82 12 73V49c39 6 53-20 64-50L1-190h34L92-34l54-156h33" id="bw"/><g id="S"><use transform="matrix(0.05,0,0,0.05,0,0)" xlink:href="#ao"/><use transform="matrix(0.05,0,0,0.05,10,0)" xlink:href="#ac"/><use transform="matrix(0.05,0,0,0.05,20,0)" xlink:href="#af"/><use transform="matrix(0.05,0,0,0.05,25.950000000000003,0)" xlink:href="#ao"/><use transform="matrix(0.05,0,0,0.05,35.95,0)" xlink:href="#ac"/><use transform="matrix(0.05,0,0,0.05,45.95,0)" xlink:href="#ai"/><use transform="matrix(0.05,0,0,0.05,50.95,0)" xlink:href="#bt"/><use transform="matrix(0.05,0,0,0.05,60.95,0)" xlink:href="#as"/><use transform="matrix(0.05,0,0,0.05,70.95,0)" xlink:href="#bu"/><use transform="matrix(0.05,0,0,0.05,74.9,0)" xlink:href="#bu"/><use transform="matrix(0.05,0,0,0.05,78.85000000000001,0)" xlink:href="#bw"/></g><g id="T"><use transform="matrix(0.05,0,0,0.05,0,0)" xlink:href="#af"/><use transform="matrix(0.05,0,0,0.05,5.95,0)" xlink:href="#bt"/><use transform="matrix(0.05,0,0,0.05,15.949999999999998,0)" xlink:href="#ad"/><use transform="matrix(0.05,0,0,0.05,25.950000000000003,0)" xlink:href="#ad"/><use transform="matrix(0.05,0,0,0.05,35.95,0)" xlink:href="#an"/><use transform="matrix(0.05,0,0,0.05,39.900000000000006,0)" xlink:href="#ad"/><use transform="matrix(0.05,0,0,0.05,49.900000000000006,0)" xlink:href="#ah"/></g><path fill="#333" d="M108 0H70L1-190h34L89-25l56-165h34" id="bx"/><g id="U"><use transform="matrix(0.05,0,0,0.05,0,0)" xlink:href="#ab"/><use transform="matrix(0.05,0,0,0.05,9,0)" xlink:href="#ac"/><use transform="matrix(0.05,0,0,0.05,19,0)" xlink:href="#af"/><use transform="matrix(0.05,0,0,0.05,24.95,0)" xlink:href="#bx"/><use transform="matrix(0.05,0,0,0.05,33.95,0)" xlink:href="#ac"/><use transform="matrix(0.05,0,0,0.05,43.95,0)" xlink:href="#af"/></g><g id="V"><use transform="matrix(0.05,0,0,0.05,0,0)" xlink:href="#ab"/><use transform="matrix(0.05,0,0,0.05,9,0)" xlink:href="#an"/><use transform="matrix(0.05,0,0,0.05,12.949999999999998,0)" xlink:href="#ae"/><use transform="matrix(0.05,0,0,0.05,22.95,0)" xlink:href="#ac"/></g><g id="W"><use transform="matrix(0.05,0,0,0.05,0,0)" xlink:href="#aq"/><use transform="matrix(0.05,0,0,0.05,5,0)" xlink:href="#bt"/><use transform="matrix(0.05,0,0,0.05,15,0)" xlink:href="#ad"/><use transform="matrix(0.05,0,0,0.05,25,0)" xlink:href="#am"/><use transform="matrix(0.05,0,0,0.05,34,0)" xlink:href="#ai"/><use transform="matrix(0.05,0,0,0.05,39,0)" xlink:href="#an"/><use transform="matrix(0.05,0,0,0.05,42.95,0)" xlink:href="#ak"/><use transform="matrix(0.05,0,0,0.05,52.95,0)" xlink:href="#ad"/></g><g id="X"><use transform="matrix(0.057215644202977006,0,0,0.057215644202977006,0,0)" xlink:href="#au"/><use transform="matrix(0.057215644202977006,0,0,0.057215644202977006,11.443128840595401,0)" xlink:href="#aD"/><use transform="matrix(0.057215644202977006,0,0,0.057215644202977006,23.973354921047367,0)" xlink:href="#aD"/></g><g id="Y"><use transform="matrix(0.057215644202977006,0,0,0.057215644202977006,0,0)" xlink:href="#aB"/><use transform="matrix(0.057215644202977006,0,0,0.057215644202977006,11.443128840595401,0)" xlink:href="#az"/><use transform="matrix(0.057215644202977006,0,0,0.057215644202977006,22.886257681190802,0)" xlink:href="#aC"/><use transform="matrix(0.057215644202977006,0,0,0.057215644202977006,35.416483761642766,0)" xlink:href="#aD"/><use transform="matrix(0.057215644202977006,0,0,0.057215644202977006,47.946709842094734,0)" xlink:href="#az"/><use transform="matrix(0.057215644202977006,0,0,0.057215644202977006,59.38983868269013,0)" xlink:href="#aw"/><use transform="matrix(0.057215644202977006,0,0,0.057215644202977006,67.40002887110691,0)" xlink:href="#aE"/><use transform="matrix(0.057215644202977006,0,0,0.057215644202977006,82.21888071967795,0)" xlink:href="#aF"/><use transform="matrix(0.057215644202977006,0,0,0.057215644202977006,94.74910680012992,0)" xlink:href="#az"/><use transform="matrix(0.057215644202977006,0,0,0.057215644202977006,106.19223564072533,0)" xlink:href="#aC"/><use transform="matrix(0.057215644202977006,0,0,0.057215644202977006,118.72246172117728,0)" xlink:href="#aG"/><use transform="matrix(0.057215644202977006,0,0,0.057215644202977006,125.53112338133155,0)" xlink:href="#aH"/><use transform="matrix(0.057215644202977006,0,0,0.057215644202977006,131.25268780162926,0)" xlink:href="#aG"/><use transform="matrix(0.057215644202977006,0,0,0.057215644202977006,138.06134946178352,0)" xlink:href="#aN"/><use transform="matrix(0.057215644202977006,0,0,0.057215644202977006,143.78291388208123,0)" xlink:href="#aI"/><use transform="matrix(0.057215644202977006,0,0,0.057215644202977006,162.09192002703386,0)" xlink:href="#az"/><use transform="matrix(0.057215644202977006,0,0,0.057215644202977006,173.53504886762926,0)" xlink:href="#aw"/><use transform="matrix(0.057215644202977006,0,0,0.057215644202977006,180.4009261719865,0)" xlink:href="#aH"/><use transform="matrix(0.057215644202977006,0,0,0.057215644202977006,186.1224905922842,0)" xlink:href="#av"/><use transform="matrix(0.057215644202977006,0,0,0.057215644202977006,198.65271667273618,0)" xlink:href="#az"/><use transform="matrix(0.057215644202977006,0,0,0.057215644202977006,210.09584551333157,0)" xlink:href="#aw"/><use transform="matrix(0.057215644202977006,0,0,0.057215644202977006,218.10603570174834,0)" xlink:href="#aN"/><use transform="matrix(0.057215644202977006,0,0,0.057215644202977006,223.82760012204605,0)" xlink:href="#ax"/><use transform="matrix(0.057215644202977006,0,0,0.057215644202977006,236.35782620249802,0)" xlink:href="#aD"/><use transform="matrix(0.057215644202977006,0,0,0.057215644202977006,248.88805228294999,0)" xlink:href="#bj"/><use transform="matrix(0.057215644202977006,0,0,0.057215644202977006,262.61980689166444,0)" xlink:href="#aC"/><use transform="matrix(0.057215644202977006,0,0,0.057215644202977006,275.1500329721164,0)" xlink:href="#aD"/><use transform="matrix(0.057215644202977006,0,0,0.057215644202977006,287.6802590525683,0)" xlink:href="#bk"/><use transform="matrix(0.057215644202977006,0,0,0.057215644202977006,301.4120136612828,0)" xlink:href="#az"/><use transform="matrix(0.057215644202977006,0,0,0.057215644202977006,312.8551425018782,0)" xlink:href="#aM"/><use transform="matrix(0.057215644202977006,0,0,0.057215644202977006,324.29827134247364,0)" xlink:href="#ax"/><use transform="matrix(0.057215644202977006,0,0,0.057215644202977006,336.8284974229256,0)" xlink:href="#aC"/><use transform="matrix(0.057215644202977006,0,0,0.057215644202977006,349.3587235033775,0)" xlink:href="#aD"/><use transform="matrix(0.057215644202977006,0,0,0.057215644202977006,361.88894958382946,0)" xlink:href="#aB"/></g><g id="Z"><use transform="matrix(0.057215644202977006,0,0,0.057215644202977006,0,0)" xlink:href="#aw"/><use transform="matrix(0.057215644202977006,0,0,0.057215644202977006,8.01019018841678,0)" xlink:href="#az"/><use transform="matrix(0.057215644202977006,0,0,0.057215644202977006,19.45331902901218,0)" xlink:href="#aM"/><use transform="matrix(0.057215644202977006,0,0,0.057215644202977006,30.896447869607584,0)" xlink:href="#aN"/><use transform="matrix(0.057215644202977006,0,0,0.057215644202977006,36.61801228990529,0)" xlink:href="#av"/><use transform="matrix(0.057215644202977006,0,0,0.057215644202977006,49.14823837035725,0)" xlink:href="#aN"/><use transform="matrix(0.057215644202977006,0,0,0.057215644202977006,54.86980279065495,0)" xlink:href="#az"/><use transform="matrix(0.057215644202977006,0,0,0.057215644202977006,66.31293163125035,0)" xlink:href="#aC"/><use transform="matrix(0.057215644202977006,0,0,0.057215644202977006,78.84315771170232,0)" xlink:href="#aG"/><use transform="matrix(0.057215644202977006,0,0,0.057215644202977006,85.65181937185658,0)" xlink:href="#aL"/><use transform="matrix(0.057215644202977006,0,0,0.057215644202977006,96.63722305882817,0)" xlink:href="#ax"/><use transform="matrix(0.057215644202977006,0,0,0.057215644202977006,109.16744913928014,0)" xlink:href="#aO"/><use transform="matrix(0.057215644202977006,0,0,0.057215644202977006,120.61057797987556,0)" xlink:href="#az"/><use transform="matrix(0.057215644202977006,0,0,0.057215644202977006,132.05370682047095,0)" xlink:href="#aC"/><use transform="matrix(0.057215644202977006,0,0,0.057215644202977006,144.58393290092292,0)" xlink:href="#aH"/><use transform="matrix(0.057215644202977006,0,0,0.057215644202977006,150.30549732122063,0)" xlink:href="#au"/><use transform="matrix(0.057215644202977006,0,0,0.057215644202977006,161.74862616181602,0)" xlink:href="#aD"/><use transform="matrix(0.057215644202977006,0,0,0.057215644202977006,174.278852242268,0)" xlink:href="#aD"/><use transform="matrix(0.057215644202977006,0,0,0.057215644202977006,186.80907832271996,0)" xlink:href="#aw"/><use transform="matrix(0.057215644202977006,0,0,0.057215644202977006,194.81926851113673,0)" xlink:href="#az"/><use transform="matrix(0.057215644202977006,0,0,0.057215644202977006,206.26239735173212,0)" xlink:href="#aB"/><use transform="matrix(0.057215644202977006,0,0,0.057215644202977006,217.7055261923275,0)" xlink:href="#aB"/></g><path fill="#333" d="M190 0L58-211 59 0H30v-248h39L202-35l-2-213h31V0h-41" id="by"/><g id="aa"><use transform="matrix(0.05,0,0,0.05,0,0)" xlink:href="#by"/><use transform="matrix(0.05,0,0,0.05,12.950000000000001,0)" xlink:href="#ak"/></g></defs></g></svg>